<?xml version="1.0" encoding="utf-8"?>
<!-- Generator: Adobe Illustrator 27.5.0, SVG Export Plug-In . SVG Version: 6.00 Build 0)  -->
<svg version="1.1" xmlns="http://www.w3.org/2000/svg" xmlns:xlink="http://www.w3.org/1999/xlink" x="0px" y="0px"
	 viewBox="0 0 500 500" style="enable-background:new 0 0 500 500;" xml:space="preserve">
<g id="BACKGROUND">
	<rect y="0" style="fill:#7C89A5;" width="500" height="500"/>
</g>
<g id="OBJECTS">
	<path style="fill:#5E7299;" d="M287.053,75.846c51.752,16.544,37.703,61.522,72.222,52.967
		c58.877-14.592,86.955,78.269,66.253,108.183s21.036,59.171-4.966,106.032c-26.002,46.861-74.764,9.905-88.756,51.307
		c-13.992,41.403-63.672,39.45-111.558,36.772s-26.186-55.954-77.092-55.534s-90.738-53.099-69.726-86.726
		s-20.848-63.996,4.542-111.589c18.024-33.786,50.566-29.504,73.605-44.137C174.562,118.523,184.543,43.075,287.053,75.846z"/>
	<g>
		<path style="fill:#FFFFFF;" d="M106.95,174.224c0,0-6.512-19.993-15.035-23.994c-8.523-4.001-22.892,8.74-30.356-0.833
			c-6.5-8.337-3.85,15.287,6.304,11.27c0,0-12.802-0.781-11.478,1.618s9.698,10.881,13.733,7.892c0,0-10.026-1.872-11.186-0.175
			c-1.16,1.697,4.044,14.404,12.721,9.876C80.33,175.35,85.399,193.698,106.95,174.224z"/>
		<path style="fill:#FFFFFF;" d="M105.581,180.229c0,0,16.873-12.547,26.14-10.883c9.267,1.664,13.625,20.367,25.249,16.872
			c10.123-3.044-5.698,14.699-11.66,5.551c0,0,10.897,6.765,8.43,7.957c-2.468,1.192-14.204,3.271-15.768-1.502
			c0,0,9.263,4.27,9.228,6.325s-11.628,9.414-16.09,0.703C126.649,196.54,111.904,208.579,105.581,180.229z"/>
		<path style="fill:#E1A987;" d="M111.247,232.898c0,0-0.912,32.775-0.958,35.083c-0.107,5.474-35.298-1.095-35.578,0.874
			s-2.543,10.95-2.543,10.95l-5.463-16.421c0,0,26.691-3.443,26.185-6.704s-7.327-24.444-7.327-24.444L111.247,232.898z"/>
		<path style="fill:#E1A987;" d="M83.776,232.4c0,0-24.531,21.754-26.245,23.3c-4.066,3.666-23.347-26.497-24.975-25.354
			s-9.727,5.636-9.727,5.636l8.241-15.218c0,0,20.77,17.114,22.802,14.514c2.032-2.6,12.818-22.065,12.818-22.065L83.776,232.4z"/>
		<path style="fill:#E1A987;" d="M105.913,155.665c0,0-2.351,19.886-5.678,18.344s-20.593-3.997-19.61,1.016
			c0.983,5.012-5.441,18.862-6.947,20.933c-1.506,2.07,37.277,19.822,37.277,19.822s20.405-23.269,18.073-26.075
			c-2.333-2.806-15.181-10.246-15.181-10.246l7.818-14.143L105.913,155.665z"/>
		<path style="fill:#E1A987;" d="M128.196,187.988l15.058,23.085l19.994-13.197c0,0,3.899-11.929,4.633-9.355
			s-1.659,8.217-1.659,8.217s9.214-11.305,10.27-8.974s-6.406,8.879-6.406,8.879s10.442-6.077,10.449-4.065
			c0.008,2.012-7.139,6.709-7.139,6.709s10.698-2.134,9.018,0.449s-9.245,3.255-9.245,3.255s9.664,1.171,6.299,2.718
			c-2.057,0.946-9.947,0.154-9.947,0.154s-23.712,20.738-26.933,20.348s-27.708-25.573-26.506-26.785
			C117.285,198.212,128.196,187.988,128.196,187.988z"/>
		<path style="fill:#E1A987;" d="M83.288,172.412L41.181,184.37c0,0-9.022-9.068-10.879-6.869c-1.857,2.199,6.539,7.654,6.539,7.654
			s-13.142-6.421-13.361-2.558c-0.094,1.659,11.531,6.702,11.531,6.702s-11.912-2.096-11.62-0.903
			c0.847,3.455,11.452,4.177,11.452,4.177s-6.82,7.754-4.451,7.658s8.52-5.704,8.52-5.704s44.835-0.614,46.578-3.071
			C87.234,189.001,83.288,172.412,83.288,172.412z"/>
		<path style="fill:#D78879;" d="M81.062,181.284c0,0-5.214,7.638-7.383,14.673l9.61-3.426
			C83.288,192.531,80.764,187.446,81.062,181.284z"/>
		<path style="fill:#FFFFFF;" d="M118.28,93.394c-11.398,0-23.003-2.664-23.238-8.616c-0.083-2.1,1.258-5.122,8.118-7.597
			c4.651-1.678,10.843-2.746,17.436-3.006c1.04-0.041,2.066-0.061,3.073-0.061c11.397,0,23.003,2.664,23.239,8.616
			c0.083,2.1-1.258,5.123-8.118,7.598c-4.651,1.678-10.844,2.746-17.436,3.006C120.313,93.374,119.287,93.394,118.28,93.394z
			 M123.668,78.113c-0.955,0-1.929,0.019-2.915,0.058c-6.194,0.245-11.96,1.229-16.236,2.772c-4.549,1.641-5.497,3.21-5.479,3.677
			c0.065,1.666,6.732,4.774,19.241,4.774c0.955,0,1.929-0.019,2.915-0.058c6.194-0.245,11.96-1.229,16.237-2.772
			c4.549-1.641,5.497-3.21,5.479-3.677C142.844,81.221,136.177,78.113,123.668,78.113z"/>
		<path style="fill:#36334D;" d="M110.723,108.66c-1.563-0.31-6.353-2.435-15.681,6.313s-10.762,29.972,3.381,33.758
			C112.566,152.518,125.981,111.69,110.723,108.66z"/>
		<path style="fill:#36334D;" d="M124.544,107.601c1.247-0.526,4.902-3.297,13.821,4.053c8.92,7.35,13.07,28.146,1.929,33.87
			C129.153,151.248,112.377,112.732,124.544,107.601z"/>
		<path style="fill:#E1A987;" d="M104.68,110.996c0,0,16.402-6.944,29.384,0.46s11.888,49.385-10.836,53.501
			C98.468,169.441,86.846,116.014,104.68,110.996z"/>
		<path style="fill:#36334D;" d="M96.227,122.582c0,0,4.912,32.99,14.808,29.174c4.845-1.868,2.778-9.29,16.398-9.802
			c3.388-0.128,7.324,12.269,10.993,7.727c3.67-4.542,0.497-37.655,0.6-34.432c0.043,1.35,3.461,7.157,4.434,10.988
			c0.973,3.831-2.24,19.528,1.681,21.944s6.58,18.034-11.536,27.571s-38.972-11.009-37.976-20.044
			c0.437-3.961,2.511-3.588,1.051-11.117S89.565,124.28,96.227,122.582z"/>
		<path style="fill:#E1A987;" d="M115.708,155.825c0,0,4.224-8.8,9.564-8.892c5.34-0.092,7.128,7.851,7.342,9.315
			c0.213,1.465-6.751,3.248-9.943,3.333C119.478,159.668,115.05,157.214,115.708,155.825z"/>
		<g>
			<path style="fill:#D78879;" d="M95.954,137.361c0,0-4.112-8.313-8.101-4.022c-3.989,4.291-4.491,18.279,9.431,10.902
				C97.284,144.241,96.564,139.577,95.954,137.361z"/>
			<path style="fill:#36334D;" d="M89.043,138.388c0,0,3.551,0.807,5.126,3.707C94.169,142.095,94.796,135.781,89.043,138.388z"/>
		</g>
		<g>
			<path style="fill:#E1A987;" d="M141.905,133.842c0,0,1.754-8.791,6.35-5.157s4.835,14.96-6.617,12.16
				C141.638,140.844,141.64,136.125,141.905,133.842z"/>
			<path style="fill:#36334D;" d="M148.689,132.174c0,0-3.184,2.968-4.299,6.074C144.39,138.248,142.607,130.474,148.689,132.174z"
				/>
		</g>
		<path style="fill:#36334D;" d="M121.632,149.974c0,0,0.204,4.659,2.161,4.416s2.749-4.316,2.749-4.316s2.6,5.529-2.725,6.254
			C118.492,157.052,119.99,150.887,121.632,149.974z"/>
		<circle style="fill:#D78879;" cx="106.95" cy="142.351" r="3.12"/>
		<circle style="fill:#D78879;" cx="136.269" cy="140.568" r="3.12"/>
		<path style="fill:#CD6169;" d="M121.708,144.283c0,0,8.309-1.517,8.636-1.889c0.327-0.372-7.359-10.429-7.742-10.944
			L121.708,144.283z"/>
		<path style="fill:#36334D;" d="M115.948,125.554c0,0-7.443,2.482-8.317,2.645C106.756,128.362,108.976,118.813,115.948,125.554z"
			/>
		<path style="fill:#36334D;" d="M136.269,125.165c0,0-7.632-1.818-8.461-2.141C126.979,122.7,133.903,115.759,136.269,125.165z"/>
		<path style="fill:#29263A;" d="M96.072,153.68c0,0,14.04,22.731,24.99,16.965s12.309,1.143,18.267-2.103
			c5.957-3.246,8.612-11.427,8.612-11.427s-2.821,20.134-18.14,22.157C114.482,181.296,90.332,166.417,96.072,153.68z"/>
		<path style="fill:#FFFFFF;" d="M124.709,135.49c0,0,3.326,5.217,2.705,5.692C126.794,141.656,122.8,134.436,124.709,135.49z"/>
		
			<ellipse transform="matrix(0.8416 -0.5402 0.5402 0.8416 -51.4981 93.5155)" style="fill:#36334D;" cx="133.663" cy="134.544" rx="2.067" ry="2.061"/>
		
			<ellipse transform="matrix(0.8416 -0.5402 0.5402 0.8416 -54.8071 83.9149)" style="fill:#36334D;" cx="115.642" cy="135.385" rx="2.067" ry="2.061"/>
		<path style="fill:#FFFFFF;" d="M113.577,143.782c-4.63,0-8.397-3.767-8.397-8.397s3.767-8.397,8.397-8.397
			s8.397,3.767,8.397,8.397S118.207,143.782,113.577,143.782z M113.577,128.987c-3.527,0-6.397,2.87-6.397,6.397
			s2.87,6.397,6.397,6.397s6.397-2.87,6.397-6.397S117.104,128.987,113.577,128.987z"/>
		<path style="fill:#FFFFFF;" d="M134.574,141.719c-4.63,0-8.397-3.767-8.397-8.397c0-4.63,3.767-8.397,8.397-8.397
			s8.397,3.767,8.397,8.397C142.972,137.952,139.205,141.719,134.574,141.719z M134.574,126.924c-3.527,0-6.397,2.87-6.397,6.397
			s2.87,6.397,6.397,6.397s6.397-2.87,6.397-6.397S138.102,126.924,134.574,126.924z"/>
		<path style="fill:#FFFFFF;" d="M126.556,135.874c-1.277-1.012-2.408-1.442-3.274-1.239c-0.943,0.221-1.395,1.158-1.399,1.167
			l-1.821-0.826c0.033-0.074,0.833-1.816,2.728-2.28c1.51-0.37,3.194,0.172,5.009,1.61L126.556,135.874z"/>
		<path style="fill:#D78879;" d="M139.389,123.143c0,0-6.898-6.605-16.964-6.606c-10.066-0.001-27.215,7.888-20.646,27.152
			c0,0-7.683-16.902-5.015-24.569s21.917-15.492,32.251-12.621C139.348,109.37,139.812,120.999,139.389,123.143z"/>
		<path style="fill:#36334D;" d="M122.897,111.974c0.788,0.324,3.402-20.225-16.806-19.158
			c-19.96,1.053-12.019,21.301-24.031,25.035c-5.531,1.719,11.6,7.186,22.823,0.571
			C111.668,114.422,112.754,107.808,122.897,111.974z"/>
		<path style="fill:#36334D;" d="M123.154,112.021c-1.678,0.547-3.048-16.651,8.514-17.249c18.568-0.96,7.327,16.435,16.176,18.996
			c0,0,0.362,4.421-6.886,4.468S129.564,109.932,123.154,112.021z"/>
		<path style="fill:#29263A;" d="M122.897,111.974c0,0-1.633-6.771-10.3-7.104c-8.667-0.333-12.574,16.017-15.834,16.357
			c0,0,10.057-0.315,13.307-4.065S118.78,110.411,122.897,111.974z"/>
		<path style="fill:#29263A;" d="M122.897,111.974c0,0,2.123-6.624,7.457-5.587s8.42,11.449,11.284,11.831
			c0,0-4.749,2.037-10.042-2.765C127.01,111.292,123.625,112.057,122.897,111.974z"/>
		
			<rect x="99.747" y="130.434" transform="matrix(0.1119 -0.9937 0.9937 0.1119 -45.684 220.8987)" style="fill:#FFFFFF;" width="2" height="11.15"/>
		<path style="fill:#FFFFFF;" d="M134.574,97.703c0,0,6.273-1.667,6.273,5.833C140.848,103.536,137.711,99.036,134.574,97.703z"/>
		<path style="fill:#FFFFFF;" d="M124.552,201.679l-11.016,46.452c0,0-34.64,0.133-66.971-30.267c0,0,21.116-18.885,27.114-23.16
			c3.688-2.629,33.272-4.833,41.752-9.386c9.391-5.041,13.598-0.458,13.598-0.458L124.552,201.679z"/>
		<path style="fill:#D78879;" d="M54.661,234.025c0,0,11.055,14.398,11.385,14.105c0.33-0.293,10.533-8.321,9.507-8.436
			c-1.026-0.115-13.897-6.516-18.073-10.23L54.661,234.025z"/>
		<path style="fill:#D78879;" d="M92.353,254.407c0,0,18.276,0.838,18.288,0.395c0.012-0.443,0.178-4.803,0.178-4.803
			s-22.626-6.123-21.843-5.273C89.759,245.577,92.353,254.407,92.353,254.407z"/>
		<path style="fill:#E6E6E6;" d="M58.518,207.324c0,0,2.329,18.212,16.829,21.712s32.383,3.413,40.691,8.54
			c0,0-2.025,11.554-3.191,12.424c-1.167,0.87-23.333-3.922-40-11.13s-25.732-19.846-26.283-21.006
			C46.014,216.703,58.518,207.324,58.518,207.324z"/>
		<path style="fill:#D78879;" d="M72.985,278.573l-0.996-0.088c0.282-3.225-0.543-4.484-0.551-4.496l0.816-0.577
			C72.297,273.472,73.304,274.924,72.985,278.573z"/>
		<path style="fill:#D78879;" d="M22.943,236.469l-0.229-0.974c1.055-0.248,2.937-2.723,3.875-4.225l0.848,0.53
			C27.167,232.234,24.741,236.046,22.943,236.469z"/>
		<path style="fill:#D78879;" d="M166.537,204.196l-0.545-0.839c1.088-0.707,1.73-1.578,1.908-2.591
			c0.332-1.885-1.021-3.703-1.034-3.721l0.796-0.604c0.067,0.088,1.627,2.173,1.224,4.491
			C168.66,202.232,167.869,203.331,166.537,204.196z"/>
	</g>
	<g>
		<path style="fill:#AA3A3C;" d="M418.158,189.67c0,0,14.248,10.346,25.257,2.411c11.009-7.935,3.963-38.518,3.963-38.518
			l-8.399,5.731l10.514-22.221l11.188,16.65l-8.584-1.095c0,0,4.051,32.894-4.088,40.953c-13.478,13.346-30.904,1.25-30.904,1.25
			L418.158,189.67z"/>
		<path style="fill:#36334D;" d="M388.669,171.581c0,0,5.454-32.119,11.931-33.865c6.477-1.745,25.857-4.885,34.928,6.057
			c0,0-18.794,2.487-12.153,16.633c0,0-11.188-4.66-13.457-1.98s-1.305,11.65-1.305,11.65s-14.224-2.174-14.293,5.048
			L388.669,171.581z"/>
		<path style="fill:#36334D;" d="M381.98,177.892c0,0-29.889-12.962-34.887-8.488c-4.998,4.474-18.206,18.999-13.99,32.572
			c0,0,12.342-14.39,20.57-1.104c0,0,2.202-11.918,5.687-12.356c3.484-0.438,10.474,5.265,10.474,5.265s5.942-13.105,12.032-9.221
			L381.98,177.892z"/>
		<path style="fill:#D88C7B;" d="M371.467,177.249l-17.925,10.026l-5.564-20.356c0,0,5.87-11.092,3.509-9.832
			s-4.757,6.903-4.757,6.903s1.728-14.482-0.681-13.621c-2.409,0.86-1.935,10.777-1.935,10.777s-2.884-11.732-4.337-10.339
			c-1.453,1.393,0.135,9.795,0.135,9.795s-5.898-9.177-6.588-6.174s4.082,8.911,4.082,8.911s-7.557-6.137-6.331-2.642
			c0.749,2.136,6.801,7.261,6.801,7.261s6.159,32.339,6.598,35.554c1.421,10.403,29.673-6.371,30.783-9.339
			C375.856,192.572,371.467,177.249,371.467,177.249z"/>
		<path style="fill:#E1A987;" d="M390.594,222.483c0,0,7.037,32.024,7.514,34.282c1.131,5.357,34.468-7.69,35.112-5.808l4.352-0.304
			l2.487-6.571c0,0-26.864,1.619-26.977-1.679c-0.113-3.298-0.333-24.742-0.333-24.742L390.594,222.483z"/>
		<path style="fill:#E1A987;" d="M415.791,218.541c0,0,28.173,16.773,30.146,17.97c4.681,2.839,17.969-30.402,19.782-29.584
			l2.316-2.913l-5.163-5.06c0,0-14.684,18.985-17.167,16.811c-2.484-2.174-16.726-19.273-16.726-19.273L415.791,218.541z"/>
		<path style="fill:#D88C7B;" d="M379.667,147.312c0,0,6.036,19.093,9.014,16.955c2.979-2.138,19.48-7.784,19.453-2.677
			c-0.027,5.108,15.51,25.723,17.377,27.474s-36.092,28.596-36.092,28.596s-29.298-27.529-27.532-30.722s16.15-15.463,16.15-15.463
			l-12.035-11.734L379.667,147.312z"/>
		<path style="fill:#36334D;" d="M367.287,102.422c1.501-0.536,5.929-3.337,16.435,3.954c10.506,7.29,15.027,28.077,1.589,33.89
			S352.636,107.65,367.287,102.422z"/>
		<path style="fill:#36334D;" d="M353.46,103.394c-1.31-0.338-5.331-2.545-13.081,6.03s-8.816,29.754,3.041,33.788
			C355.278,147.246,366.246,106.692,353.46,103.394z"/>
		<path style="fill:#E1A987;" d="M373.607,103.85c0,0-17.241-4.472-29.001,4.749s-4.543,50.592,18.538,51.343
			C388.293,160.76,391.983,106.207,373.607,103.85z"/>
		<path style="fill:#36334D;" d="M383.662,114.076c0,0-0.038,33.354-10.385,31.025c-5.066-1.14-4.106-8.784-17.655-7.301
			c-3.37,0.369-5.452,13.207-9.746,9.251c-4.294-3.957-5.994-37.178-5.625-33.975c0.154,1.342-2.378,7.586-2.78,11.518
			c-0.402,3.932,5.07,18.991,1.544,21.954c-3.525,2.963-3.874,18.802,15.442,25.59c19.316,6.788,36.945-16.587,34.639-25.378
			c-1.011-3.854-3.008-3.183-2.664-10.844C386.776,128.254,390.5,114.783,383.662,114.076z"/>
		<path style="fill:#E1A987;" d="M369.248,149.809c0,0-5.464-8.088-10.76-7.398c-5.296,0.69-5.905,8.808-5.902,10.288
			c0.003,1.48,7.153,2.226,10.324,1.845C366.08,154.162,370.103,151.087,369.248,149.809z"/>
		<g>
			<path style="fill:#E1A987;" d="M386.092,128.656c0,0,2.853-8.825,7.427-5.163s7.114,17.426-7.737,12.163
				C385.782,135.657,385.813,130.938,386.092,128.656z"/>
			<path style="fill:#36334D;" d="M393.079,128.663c0,0-3.395,1.317-4.529,4.416C388.549,133.079,387.007,126.924,393.079,128.663z"
				/>
		</g>
		<g>
			<path style="fill:#D78879;" d="M340.12,131.89c0,0-3.02-8.44-7.036-4.174c-4.016,4.266-2.597,15.506,8.323,11.062
				C341.407,138.778,340.716,134.11,340.12,131.89z"/>
			<path style="fill:#36334D;" d="M333.165,131.232c0,0,3.584,2.471,5.141,5.381C338.306,136.613,338.934,128.661,333.165,131.232z"
				/>
		</g>
		<path style="fill:#36334D;" d="M362.533,144.886c0,0,0.479,4.638-1.492,4.684c-1.971,0.046-3.35-3.868-3.35-3.868
			s-1.764,5.85,3.61,5.788C366.674,151.429,364.291,145.55,362.533,144.886z"/>
		<circle style="fill:#D78879;" cx="375.006" cy="136.158" r="3.12"/>
		<circle style="fill:#D78879;" cx="346.781" cy="140.221" r="3.12"/>
		<path style="fill:#CD6169;" d="M361.626,139.268c0,0-8.442-0.287-8.819-0.607c-0.377-0.32,5.756-11.393,6.06-11.958
			L361.626,139.268z"/>
		<path style="fill:#36334D;" d="M363.126,122.693c0,0,7.551-2.13,8.366-2.487C372.307,119.849,365.104,113.198,363.126,122.693z"/>
		<path style="fill:#36334D;" d="M344.893,119.336c0,0,7.397,2.615,8.269,2.794C354.033,122.308,351.985,112.721,344.893,119.336z"
			/>
		<path style="fill:#29263A;" d="M388.36,144.817c0,0-10.567,24.539-22.243,20.435c-11.676-4.104-12.01,2.93-18.378,0.589
			s-10.189-10.046-10.189-10.046s5.733,19.505,21.184,19.268C374.184,174.827,395.9,156.579,388.36,144.817z"/>
		<path style="fill:#FFFFFF;" d="M357.372,131.008c0,0-2.527,5.647-1.844,6.026C356.211,137.412,359.106,129.686,357.372,131.008z"
			/>
		
			<ellipse transform="matrix(0.8634 -0.5045 0.5045 0.8634 -19.8298 194.1161)" style="fill:#36334D;" cx="348.572" cy="133.679" rx="2.067" ry="2.061"/>
		
			<ellipse transform="matrix(0.8634 -0.5045 0.5045 0.8634 -16.7292 203.6755)" style="fill:#36334D;" cx="367.776" cy="132.733" rx="2.067" ry="2.061"/>
		<path style="fill:#36334D;" d="M381.98,220.596l3.028,22.209c4.987,0.229,30.864-4.272,30.864-4.272l-1.868-19.819l12.34,10.087
			c0,0,19.239-21.977,17.453-24.08c-6.271-7.386-13.378-14.155-13.378-14.155L381.98,220.596z"/>
		<path style="fill:#AA3A3C;" d="M378.037,171.477c0,0-1.619,6.219,3.943,6.415c5.561,0.196,6.702-13.625,6.702-13.625
			s12.649-7.185,17.939-4.503c5.291,2.682,23.798,30.801,23.798,30.801s-47.144,31.806-48.439,30.03s-18.526-22.885-16.581-36.737
			C366.14,178.583,378.037,171.477,378.037,171.477z"/>
		<path style="fill:#AA3A3C;" d="M390.062,173.823c0,0,13.45,19.824,15.2,18.888c1.75-0.936,12.895-9.877,11.643-20.961
			C416.275,166.164,400.512,144.667,390.062,173.823z"/>
		<path style="fill:#AA3A3C;" d="M375.665,173.173c0,0-19.087,5.602-19.525,8.352s2.676,23.563,5.639,24.563
			s15.953-6.757,15.597-7.964C377.02,196.918,375.665,173.173,375.665,173.173z"/>
		<path style="fill:#36334D;" d="M433.219,250.957l0.836-7.42l9.763-0.85l0.555,3.251l-3.743,1.251c0,0,10.935,10.089-3.645,15.239
			C436.986,262.428,441.711,255.928,433.219,250.957z"/>
		<path style="fill:#36334D;" d="M465.007,207.833l-6.109-4.292l3.937-8.975l3.119,1.073l-0.697,3.884
			c0,0,14.098-4.756,11.624,10.508C476.88,210.029,473.442,202.766,465.007,207.833z"/>
		<path style="fill:#D88C7B;" d="M406.674,188.952c0,0-12.054,11.799-20.291,7.042c-6.441-3.72-12.436-42.542-12.436-42.542
			s-5.203-8.255-3.417-8.644c1.786-0.389,4.922,5.471,4.922,5.471s-2.814-8.214-1.203-8.49c1.61-0.276,4.249,7.654,4.249,7.654
			s-2.916-10.599,0.159-9.569c1.843,0.618,2.819,8.857,2.819,8.857s0.762-10.234,2.013-8.531s1.244,10.701,1.412,11.888
			C385.068,153.275,406.727,184.803,406.674,188.952z"/>
		<path style="fill:#FFFFFF;" d="M368.787,138.862L368.787,138.862c-4.289,0-7.874-3.221-8.338-7.491
			c-0.5-4.603,2.838-8.754,7.44-9.255c4.666-0.506,8.76,2.869,9.256,7.441c0.242,2.229-0.398,4.42-1.804,6.168
			c-1.406,1.748-3.408,2.844-5.638,3.086C369.396,138.846,369.091,138.862,368.787,138.862z M368.807,124.066
			c-0.231,0-0.465,0.013-0.7,0.038c-3.507,0.381-6.05,3.544-5.669,7.051c0.354,3.253,3.083,5.707,6.35,5.707c0,0,0,0,0.001,0
			c0.231,0,0.464-0.013,0.699-0.038c1.699-0.185,3.225-1.02,4.296-2.352c1.07-1.332,1.559-3,1.374-4.699
			C374.804,126.52,372.073,124.066,368.807,124.066z"/>
		<path style="fill:#D78879;" d="M413.081,242.403c0,0-15.788,10.615-15.82,10.467c-0.032-0.149-3.199-10.911-2.414-11.019
			c0.785-0.108,18.235-2.841,18.235-2.841V242.403z"/>
		<polygon style="fill:#D78879;" points="443.914,213.924 437.491,231.467 428.608,226.174 441.381,210.029 		"/>
		<path style="fill:#FFFFFF;" d="M355.946,132.352l-1.404-1.425c1.649-1.625,3.266-2.345,4.807-2.142
			c1.934,0.256,2.917,1.902,2.958,1.972l-1.722,1.018c-0.006-0.009-0.556-0.892-1.517-1.009
			C358.188,130.658,357.108,131.207,355.946,132.352z"/>
		<path style="fill:#D78879;" d="M341.165,125.962c0,0-0.03-13.244,20.808-13.394c14.296-0.103,20.764,11.888,20.155,19.176
			c0,0,3.951-14.712-0.397-21.564c-4.348-6.852-27.599-6.682-33.531-3.916C342.27,109.032,339.37,121.487,341.165,125.962z"/>
		<path style="fill:#36334D;" d="M355.728,107.479c-0.732,0.435-6.321-19.51,13.825-21.409c19.9-1.875,15.003,19.315,27.431,21.254
			c5.722,0.893-10.425,8.804-22.494,3.9C367.194,108.261,365.153,101.876,355.728,107.479z"/>
		<path style="fill:#36334D;" d="M355.481,107.563c1.654,0.614-1.533-17.726-10.943-15.819
			c-18.222,3.692-4.846,17.329-13.227,21.156c0,0,0.288,4.426,7.465,3.413S346.569,104.254,355.481,107.563z"/>
		<path style="fill:#29263A;" d="M355.728,107.479c0,0-3.325-5.112-9.719-4.795s-4.389,12.348-8.176,13.096
			c0,0,3.015,1.012,7.613-1.913C350.043,110.943,349.203,106.456,355.728,107.479z"/>
		<path style="fill:#29263A;" d="M355.728,107.479c0,0,1.12-6.636,8.358-7.709s12.059,12.279,16.659,12.965
			c0,0-2.147,0.485-7.791-2.169C367.309,107.912,360.772,105.032,355.728,107.479z"/>
		<path style="fill:#AA3A3C;" d="M370.118,109.178c0,0,15.316-5.921,14.129-15.451c0,0,6.234,1.678,6.323,6.822
			c0.196,11.335-13.211,16.886-13.211,16.886S371.086,113.47,370.118,109.178z"/>
		<path style="fill:#AA3A3C;" d="M346.727,112.901c0,0-16.609-7.171-17.946-17.419c0,0-5.512,6.434-2.23,14.156
			c3.282,7.723,14.151,11.309,14.151,11.309S343.656,117.451,346.727,112.901z"/>
		<path style="fill:#C4534C;" d="M330.405,100.045c0,0-2.052,16.537,14.434,11.952C344.839,111.997,335.789,107.084,330.405,100.045
			z"/>
		<path style="fill:#C4534C;" d="M383.21,99.021c0,0,3.428,13.976-11.161,9.298C372.049,108.32,380.025,104.673,383.21,99.021z"/>
		
			<rect x="376.044" y="128.699" transform="matrix(0.9758 -0.2188 0.2188 0.9758 -19.1309 86.6374)" style="fill:#FFFFFF;" width="11.15" height="2"/>
		<path style="fill:#FFFFFF;" d="M347.691,139.079C347.69,139.079,347.69,139.079,347.691,139.079c-4.291,0-7.876-3.221-8.34-7.491
			c-0.5-4.603,2.838-8.755,7.44-9.255c4.686-0.5,8.76,2.87,9.256,7.441c0.242,2.229-0.398,4.42-1.804,6.169
			c-1.406,1.748-3.408,2.844-5.638,3.086C348.299,139.063,347.993,139.079,347.691,139.079z M347.708,124.283
			c-0.231,0-0.465,0.013-0.699,0.038c-3.507,0.381-6.05,3.544-5.669,7.051c0.354,3.253,3.084,5.707,6.351,5.707h0.001
			c0.23,0,0.464-0.013,0.698-0.038c1.699-0.185,3.225-1.02,4.296-2.352c1.07-1.332,1.559-3.001,1.374-4.7
			C353.706,126.736,350.976,124.283,347.708,124.283z"/>
		<path style="fill:#36334D;" d="M425.96,137.544c0,0-12.661-1.428-12.148,9.045c0,0-14.868-3.188-21.391,7.916
			c0,0,2.745-13.409,7.554-17.456C405.612,132.305,424.422,136.28,425.96,137.544z"/>
		<path style="fill:#893231;" d="M406.674,188.952c0,0,8.728-8.979,11.25-15.779l3.78,5.43
			C421.704,178.602,416.262,189.675,406.674,188.952z"/>
		<path style="fill:#893231;" d="M370.71,202.994c0,0-5.976-12.219-1.651-21.814c0,0-7.927,8.495-2.441,23.815L370.71,202.994z"/>
		<path style="fill:#FFFFFF;" d="M366.74,91.605c0,0,7.382-1.698,10.642,2.121C377.383,93.726,374.523,84.707,366.74,91.605z"/>
	</g>
	<g>
		<path style="fill:#36334D;" d="M257.725,48.423c0,0,36.733-23.865,57.578-1.478s5.962,50.379-10.5,54.503l7.519,10.482
			c-5.315,2.707-17.979-4.649-17.979-4.649s-24.551,5.75-39.686-4.518S233.586,62.958,257.725,48.423z"/>
		<path style="fill:#FFFFFF;" d="M304.348,58.258c-7.824-11.548-26.859-7.85-26.859-7.85c-6.208,1.152-18.796,7.373-19.444,21.903
			c-0.649,14.53,13.584,12.48,15.538,13.365c1.954,0.885,0.708,9.709,4.645,9.235c3.937-0.474,3.346-6.331,4.434-6.009
			c1.088,0.322,2.147,5.251,6.274,5.461c4.127,0.21,1.595-7.676,2.13-8.795c0.535-1.119,2.83,6.753,6.899,6.028
			s2.181-6.047,2.14-9.856S314.891,73.819,304.348,58.258z M271.474,77.087c-6.571-0.296-5.628-6.55-4.879-8.069
			c0,0,1.986-6.303,8.868-4.18C282.343,66.96,278.045,77.383,271.474,77.087z M289.202,78.656c-2.043-0.25-4.056-3.408-4.176-2.554
			c-0.12,0.854-0.715,7.498-2.792,1.575c0,0-0.999-6.867,1.929-6.191C287.091,72.162,291.245,78.906,289.202,78.656z
			 M290.056,70.755c-6.413-2.04-3.576-8.027-1.304-8.923c0,0,7.238-3.242,9.866,3.254C301.245,71.582,296.469,72.794,290.056,70.755
			z"/>
	</g>
	<g>
		<path style="fill:#FFFFFF;" d="M220.877,88.54c0,0-36.739-16.167-52.291,7.152s-0.251,45.788,15.245,47.09l-2.968,11.242
			c5.206,1.665,17.479-8.319,17.479-8.319s21.146,3.045,33.32-8.474S244.851,98.126,220.877,88.54z"/>
		<path style="fill:#C4534C;" d="M202.468,134.744c0,0-22.116-13.079-24.116-24.171s16.233-22.908,24.116,0
			c0,0,4.55-18.75,15.884-11.921C229.685,105.481,219.019,120.821,202.468,134.744z"/>
	</g>
	<g>
		<defs>
			<rect id="SVGID_1_" x="0" y="0" width="500" height="500"/>
		</defs>
		<clipPath id="SVGID_00000111155381537073345830000007970720989630854843_">
			<use xlink:href="#SVGID_1_"  style="overflow:visible;"/>
		</clipPath>
		<g style="clip-path:url(#SVGID_00000111155381537073345830000007970720989630854843_);">
			<path style="fill:#D78879;" d="M229.221,300.316c0,0,10.093,54.47-14.414,60.949c-17.967,4.75-125.483-17.962-94.086,136.185
				h282.154c0,0,15.82-87.084-17.757-114.129c-20.864-16.805-73.341-22.443-89.094-28.535
				c-15.753-6.092-10.978-66.146-10.978-66.146L229.221,300.316z"/>
			<path style="fill:#FFFFFF;" d="M220.4,357.925c0,0,13.325,34.644,35.078,35.121c35.56,0.779,40.547-38.259,40.547-38.259
				c15.548,2.164,79.453,5.878,99.792,20.216c20.339,14.337,10.439,122.449,10.439,122.449H120.721c0,0-18.113-99.018,5.602-119.287
				S220.4,357.925,220.4,357.925z"/>
			<path style="fill:#36334D;" d="M240.865,194.584c-3.036-0.711-12.259-5.182-31.078,11.301s-23.033,57.885,4.368,66.228
				S270.496,201.522,240.865,194.584z"/>
			<path style="fill:#36334D;" d="M269.86,193.351c2.965-0.966,11.775-6.204,31.925,8.623s27.862,55.721,1.268,66.36
				C276.459,278.973,240.925,202.779,269.86,193.351z"/>
			<path style="fill:#E1A987;" d="M228.894,198.75c0,0,32.53-12.487,57.42,2.851c24.89,15.338,19.963,97.345-24.74,103.883
				C212.868,312.607,193.693,207.376,228.894,198.75z"/>
			<path style="fill:#36334D;" d="M211.598,220.84c0,0,3.133,67.047,22.733,60.244c9.597-3.331,7.649-16.882,26.614-18.64
				c6.604-0.612,19.969,20.934,27.446,12.297s7.385-71.703,7.373-65.395c-0.005,2.643,6.291,14.223,7.938,21.777
				c1.647,7.554-5.676,38.032,1.829,43.017c7.505,4.985,4.116,31.516-31.938,48.96c-36.054,17.444-63.389-29.991-65.367-37.531
				s5.148-6.849,2.793-21.666C208.664,249.086,198.461,223.719,211.598,220.84z"/>
			<path style="fill:#36334D;" d="M221.344,229.364c0,0,14.412-5.067,16.479-6.91s3.073,8.061-3.617,11.271
				C227.517,236.935,218.708,231.59,221.344,229.364z"/>
			<path style="fill:#36334D;" d="M286.089,231.905c0,0-14.124-5.822-16.893-5.825c-2.769-0.002,3.078-8.059,10.205-5.996
				C286.529,222.147,289.538,232.001,286.089,231.905z"/>
			
				<ellipse transform="matrix(0.9991 -0.0425 0.0425 0.9991 -9.9954 10.1861)" style="fill:#36334D;" cx="234.735" cy="240.338" rx="3.389" ry="4.161"/>
			
				<ellipse transform="matrix(0.9991 -0.0425 0.0425 0.9991 -9.8611 12.0325)" style="fill:#36334D;" cx="278.258" cy="238.1" rx="3.389" ry="4.161"/>
			<path style="fill:#29263A;" d="M208.226,285.569c0,0,13.077,16.507,29.899,11.277s18.798,14.868,35.009,4.912
				c16.211-9.957,12.483-20.386,34.007-10.816c0,0-16.113,38.659-49.193,37.842C212.226,327.655,210.821,289.883,208.226,285.569z"
				/>
			<circle style="fill:#D78879;" cx="232.091" cy="263.729" r="8.791"/>
			<circle style="fill:#D78879;" cx="282.247" cy="260.42" r="8.791"/>
			<path style="fill:#36334D;" d="M234.332,252.589c0,0,4.98-2.83,5.961-2.911C241.274,249.596,238.041,254.32,234.332,252.589z"/>
			<path style="fill:#36334D;" d="M273.134,248.277c0,0,5.452,1.757,6.175,2.426C280.032,251.371,274.365,252.181,273.134,248.277z"
				/>
			<path style="fill:#E1A987;" d="M243.349,286.983c0,0,5.455-13.036,15.902-12.861c10.447,0.175,16.132,10.611,16.452,13.489
				c0.32,2.878-13.23,4.445-19.477,4.401C249.979,291.968,241.969,289.655,243.349,286.983z"/>
			<path style="fill:#36334D;" d="M251.608,283.972c0,0,9.336-7.651,17.415,1.952C269.024,285.924,257.078,284.764,251.608,283.972z
				"/>
			<g>
				<path style="fill:#CD6169;" d="M256.646,234.133c0,0,13.721,34.887,11.267,35.323s-17.88,4.075-18.02,0.766
					C249.752,266.913,255.434,231.01,256.646,234.133z"/>
				<path style="fill:#FFFFFF;" d="M258.005,244.829c0,0,4.359,18.148,5.722,18.09S257.206,241.614,258.005,244.829z"/>
				<path style="fill:#C84A60;" d="M253.107,247.804c0,0-3.263,28.556,14.517,17.571c0,0,0.641,2.979,0.29,4.08
					s-15.896,2.625-18.02,0.766C247.769,268.363,253.107,247.804,253.107,247.804z"/>
			</g>
			<g>
				<path style="fill:#E1A987;" d="M210.083,249.718c0,0-7.488-16.526-15.572-8.402c-8.084,8.125-9.994,35.44,17.715,21.942
					C212.226,263.258,211.128,254.092,210.083,249.718z"/>
				<path style="fill:#36334D;" d="M196.503,251.267c0,0,6.889,1.813,9.776,7.588C206.279,258.855,207.923,246.552,196.503,251.267z
					"/>
			</g>
			<g>
				<path style="fill:#E1A987;" d="M300.159,245.889c0,0,6.059-17.102,14.803-9.693c8.745,7.409,12.966,34.464-15.789,23.366
					C299.172,259.562,299.489,250.336,300.159,245.889z"/>
				<path style="fill:#36334D;" d="M313.821,246.28c0,0-6.71,2.391-9.097,8.39C304.724,254.67,302.042,242.551,313.821,246.28z"/>
			</g>
			<path style="fill:#FFFFFF;" d="M234.725,261.793c-8.504,0-15.449-6.66-15.811-15.162c-0.371-8.724,6.424-16.123,15.148-16.494
				c8.815-0.376,16.122,6.419,16.493,15.148c0.371,8.724-6.424,16.122-15.148,16.494
				C235.179,261.789,234.952,261.793,234.725,261.793z M234.745,233.123c-0.184,0-0.369,0.004-0.555,0.012
				c-7.071,0.301-12.579,6.298-12.278,13.369c0.302,7.075,6.223,12.583,13.369,12.278c7.071-0.301,12.579-6.298,12.278-13.368
				C247.265,238.521,241.637,233.123,234.745,233.123z"/>
			<path style="fill:#FFFFFF;" d="M279.075,259.907c-8.504,0-15.449-6.659-15.811-15.162c-0.37-8.723,6.425-16.122,15.148-16.493
				c8.807-0.378,16.122,6.419,16.493,15.148c0.18,4.226-1.297,8.269-4.158,11.384s-6.764,4.93-10.99,5.109
				C279.529,259.903,279.302,259.907,279.075,259.907z M279.096,231.237c-0.185,0-0.37,0.004-0.556,0.012
				c-7.07,0.301-12.578,6.298-12.277,13.369c0.3,7.076,6.254,12.569,13.368,12.277c3.425-0.146,6.589-1.616,8.908-4.141
				c2.318-2.525,3.516-5.802,3.369-9.227C291.616,236.636,285.987,231.237,279.096,231.237z"/>
			<path style="fill:#FFFFFF;" d="M250.303,246.185l-2.496-1.664c0.098-0.147,2.442-3.617,6.928-4.4
				c3.45-0.605,7.123,0.529,10.925,3.358l-1.791,2.406c-3.1-2.306-5.985-3.255-8.578-2.816
				C252.083,243.61,250.32,246.159,250.303,246.185z"/>
			<path style="fill:#D78879;" d="M296.912,217.074c0,0-2.275,5.381-17.846-1.171c-15.571-6.552-52.769-5.006-66.291,18.969
				c0,0-1.129-8.827-1.176-14.033s9.303-21.932,34.623-27.269C271.542,188.235,296,204.615,296.912,217.074z"/>
			<path style="fill:#36334D;" d="M254.535,203.08c-1.544,0.629-11.711-38.54,23.252-40.815c39.02-2.539,22.038,43.09,44.926,52.071
				c10.547,4.139-25.809,9.276-35.035-3.062C270.59,188.419,256.78,202.165,254.535,203.08z"/>
			<path style="fill:#36334D;" d="M254.535,203.08c1.52,0.685,14.592-38.091-24.415-40.815
				c-39.007-2.724-28.422,45.962-47.404,57.59c-9.662,5.918,26.371,6.52,36.172-5.366C228.69,202.603,234.98,194.261,254.535,203.08
				z"/>
			
				<rect x="211.879" y="238.312" transform="matrix(0.2861 -0.9582 0.9582 0.2861 -83.1144 379.8566)" style="fill:#FFFFFF;" width="3" height="14.794"/>
			
				<rect x="293.06" y="239.931" transform="matrix(0.9435 -0.3314 0.3314 0.9435 -63.1061 112.8042)" style="fill:#FFFFFF;" width="12.262" height="3"/>
			<path style="fill:#E1A987;" d="M116.539,471.615c0,0,53.901-22.124,78.691-18.973c10.435,1.326,36.861,46.461,36.861,46.461
				s-9.605,56.605-57.308,51.218C122.868,544.457,116.112,479.463,116.539,471.615z"/>
			<path style="fill:#E1A987;" d="M334.095,452.642c0,0,68.75,10.638,72.919,20.03c4.169,9.392-5.69,55.911-5.69,55.911
				l-64.103-4.121L334.095,452.642z"/>
			<path style="fill:#29263A;" d="M254.535,203.08c0,0,6.605-14.766-15.161-17.217s-25.389,33.546-31.148,35.14
				c0,0,11.132-4.464,19.535-12.1S246.273,200.042,254.535,203.08z"/>
			<path style="fill:#29263A;" d="M254.535,203.08c0,0-1.773-19.207,17.411-17.337s21.284,30.391,24.966,31.331
				c0,0-9.894-2.286-14.665-8.171C277.475,203.018,265.205,195.44,254.535,203.08z"/>
			<path style="fill:#FFFFFF;" d="M279.086,171.969c0,0,14.826-4.622,20.087,10.413
				C299.172,182.382,288.048,174.881,279.086,171.969z"/>
			<path style="fill:#E6E6E6;" d="M334.958,472.462c0.447-3.851,0.093-26.311,0.093-26.311c-5.855-0.7-70.745,21.235-138.548-17.574
				l-7.248,30.299L334.958,472.462z"/>
			<path style="fill:#E6E6E6;" d="M183.047,446.199l-2.998-0.096c0.346-10.88,0.028-31.774,0.024-31.984l3-0.047
				C183.077,414.283,183.396,435.248,183.047,446.199z"/>
			<path style="fill:#E6E6E6;" d="M120.84,385.539c0,0-0.034,55.979,14.494,60.612c23.876,7.614,48.782,1.001,46.215,0l0.025,7.12
				c0,0-52.669,16.661-65.034,18.344C116.539,471.615,107.001,406.428,120.84,385.539z"/>
			<path style="fill:#E1A987;" d="M407.798,486.691c0,0,0.162,47.467-11.981,52.68c-56.995,24.463-198.659-47.17-218.679-48.648
				s9.479-27.326,27.884-31.83S398.654,470.338,407.798,486.691z"/>
			<path style="fill:#D78879;" d="M367.28,478.179c-11.191-4.776-32.555-8.539-32.769-8.576l0.516-2.955
				c0.89,0.155,21.918,3.858,33.431,8.771L367.28,478.179z"/>
			<g>
				<path style="fill:#E1A987;" d="M230.12,326.447c0,0-13.668-33.109-4.056-29.232c6.028,2.431,16.551,20.461,25.545,20.987
					c8.994,0.526,34.902-23.477,47.583-24.247c12.681-0.77-22.418,27.12-23.318,29.474c-0.9,2.354,11.644,8.132,10.179,22.836
					c-1.465,14.704-23.736,11.993-24.668,21.622c-2.94,30.384-33.796,136.454-33.796,136.454l-73.58-6.89
					C154.009,497.45,233.073,339.757,230.12,326.447z"/>
				<path style="fill:#D78879;" d="M267.194,333.808l-1.145-2.773c6.485-2.676,10.817-5.772,10.86-5.804l1.755,2.433
					C278.479,327.798,274.025,330.988,267.194,333.808z"/>
				<path style="fill:#D78879;" d="M272.766,345.187l-1.122-2.782c2.547-1.031,9.401-4.645,10.51-8.931l2.904,0.752
					C283.343,340.854,273.197,345.013,272.766,345.187z"/>
				<path style="fill:#D78879;" d="M284.927,311.335c-2.756-0.984-4.351-4.511-4.523-4.91l2.754-1.191l-1.377,0.596l1.375-0.599
					c0.309,0.703,1.48,2.814,2.779,3.278L284.927,311.335z"/>
				<path style="fill:#D78879;" d="M280.512,314.202c-3.081-1.027-4.117-4.339-4.16-4.479l2.868-0.88
					c0.006,0.02,0.646,1.981,2.241,2.514L280.512,314.202z"/>
				<path style="fill:#D78879;" d="M225.133,304.673l-0.076-3l0.038,1.5l-0.073-1.498c0.063-0.005,1.568-0.142,2.957-2.198
					l2.486,1.678C228.207,304.5,225.441,304.665,225.133,304.673z"/>
				<path style="fill:#D78879;" d="M297.211,300.188c-2.686-0.764-3.614-3.671-3.652-3.794l1.91-0.592l-0.955,0.296l0.954-0.3
					c0.006,0.02,0.657,2.002,2.29,2.466L297.211,300.188z"/>
			</g>
			<path style="fill:#D78879;" d="M227.454,513.821l-2.78-1.127c6.491-16.019,14.107-53.734,14.184-54.114l2.941,0.592
				C241.485,460.73,234.05,497.542,227.454,513.821z"/>
			<path style="fill:#D78879;" d="M155.451,499.247l-2.885-0.824c8.785-30.719,20.183-42.711,20.664-43.206l2.152,2.09l-1.076-1.045
				l1.078,1.043C175.271,457.422,164,469.35,155.451,499.247z"/>
			<path style="fill:#E6E6E6;" d="M334.095,452.642c0,0,52.262,3.937,59.965-0.307s10.04-59.289,10.04-59.289
				s7.467,43.991,2.915,79.627c0,0-48.348-16.426-71.964-14.552L334.095,452.642z"/>
			<path style="fill:#E6E6E6;" d="M333.551,458.157c0-0.001-0.701-28.66-0.954-38.25l2.998-0.078
				c0.253,9.59,0.956,38.254,0.956,38.254L333.551,458.157z"/>
			<path style="fill:#E6E6E6;" d="M265.182,401.106c-3.684,0-6.156-0.445-6.409-0.492l0.552-2.949
				c0.149,0.027,15.025,2.667,26.87-5.803c7.688-5.499,12.49-14.453,14.272-26.614l2.969,0.436
				c-1.907,13.013-7.13,22.648-15.522,28.638C279.986,399.978,271.049,401.106,265.182,401.106z"/>
		</g>
	</g>
</g>
</svg>
