<?xml version="1.0" encoding="utf-8"?>
<!-- Generator: Adobe Illustrator 27.5.0, SVG Export Plug-In . SVG Version: 6.00 Build 0)  -->
<svg version="1.1" xmlns="http://www.w3.org/2000/svg" xmlns:xlink="http://www.w3.org/1999/xlink" x="0px" y="0px"
	 viewBox="0 0 3710 3710" style="enable-background:new 0 0 3710 3710;" xml:space="preserve">
<g id="Background">
	<g>
		<g>
			<rect style="fill:#FFFFFF;" width="3710" height="3710"/>
		</g>
	</g>
</g>
<g id="Illustration">
	<g id="Acknowledgment_received">
		<path style="fill:#F4F7FA;" d="M1699.464,455.241c-361.184,6.38-920.007,143.708-1080.857,496.618
			c-56.179,123.258-52.375,304.462-44.769,666.869c2.236,106.521,5.943,261.777,31.978,454.415
			c54.083,400.17,90.9,672.592,230.242,831.218c349.148,397.47,1610.353,385.984,2148.923-329.591
			c293.793-390.351,338.99-945.639,70.352-1404.556C2759.566,664.955,2183.005,446.699,1699.464,455.241z"/>
		<g>
			<g>
				<defs>
					<path id="SVGID_1_" d="M2047.726,3032.965l-283.849,155.08c0,0-132.985-116.416-119.568-257.18
						c27.377-287.202-226.075-291.135-331.983-308.662c-159.72-26.433-288.942-119.384-154.397-264.095
						c134.545-144.71-170.056-309.339-434.154-314.853c-175.834-3.671-315.748-473.736,162.456-507.595
						c334.688-23.698,447.836,283.062,541.803,424.388c93.967,141.326,321.348,33.038,344.854,255.557
						c20.078,190.073-40.814,369.934,110.883,425.272C2035.467,2696.215,2110.348,2810.274,2047.726,3032.965z"/>
				</defs>
				<clipPath id="SVGID_00000127018625687863951250000007817494161444211609_">
					<use xlink:href="#SVGID_1_"  style="overflow:visible;"/>
				</clipPath>
				
					<linearGradient id="SVGID_00000029766082057039971150000004376352168718356894_" gradientUnits="userSpaceOnUse" x1="6851.8604" y1="-898.1837" x2="6207.917" y2="931.9723" gradientTransform="matrix(-0.8775 0.4795 0.4795 0.8775 7085.9131 -841.8858)">
					<stop  offset="0" style="stop-color:#AA80F9"/>
					<stop  offset="0.9964" style="stop-color:#6165D7"/>
				</linearGradient>
				
					<path style="clip-path:url(#SVGID_00000127018625687863951250000007817494161444211609_);fill:url(#SVGID_00000029766082057039971150000004376352168718356894_);" d="
					M2047.726,3032.965l-283.849,155.08c0,0-132.985-116.416-119.568-257.18c27.377-287.202-226.075-291.135-331.983-308.662
					c-159.72-26.433-270.831-112.629-176.383-259.524c106.864-166.204-148.07-313.91-412.168-319.423
					c-258.439-5.396-397.975-467.914,162.456-507.595c334.688-23.698,447.836,283.062,541.803,424.388
					c93.967,141.326,321.348,33.038,344.854,255.557c20.078,190.073-40.814,369.934,110.883,425.272
					C2035.467,2696.215,2110.348,2810.274,2047.726,3032.965z"/>
				<g style="opacity:0.5;clip-path:url(#SVGID_00000127018625687863951250000007817494161444211609_);">
					<path style="fill:#BEB8F2;" d="M1939.269,3126.428l-6.485,2.14c-1.325-4.017-135.467-405.641-388.499-763.689
						c-233.108-329.86-617.764-689.153-1126.457-527.606l-2.067-6.507c226.446-71.915,447.55-48.385,657.175,69.932
						c167.454,94.515,327.942,249.399,477.005,460.353C1803.528,2719.931,1937.939,3122.404,1939.269,3126.428z"/>
					<path style="fill:#BEB8F2;" d="M1158.398,1953.922l-6.354,2.507c-83.491-211.378-312.491-451.321-314.794-453.721l4.924-4.732
						C844.487,1500.388,1074.417,1741.304,1158.398,1953.922z"/>
					<path style="fill:#BEB8F2;" d="M1016.564,1878.916c-270.385-15.47-425.905,147.802-427.443,149.452l-4.995-4.653
						c1.56-1.679,159.127-167.275,432.826-151.617L1016.564,1878.916z"/>
					<path style="fill:#BEB8F2;" d="M1696.955,2607.971c-221.355-245.916-643.462-105.27-647.459-103.557l-3.093-6.08
						c3.764-2.054,432.307-143.031,655.626,105.069L1696.955,2607.971z"/>
					<path style="fill:#BEB8F2;" d="M1633.399,2487.247l-6.537,1.984c-61.378-202.012,67.198-434.333,68.505-436.658l5.952,3.345
						C1700.026,2058.219,1572.872,2288.056,1633.399,2487.247z"/>
					<path style="fill:#BEB8F2;" d="M1910.285,3065.834c-68.719-105.242-273.287-106.538-275.345-106.541l0.003-6.826
						c8.552,0,210.314,1.286,281.06,109.635L1910.285,3065.834z"/>
					<path style="fill:#BEB8F2;" d="M1879.797,2970.299l-6.459,2.218c-32.291-93.988,45.334-260.754,70.842-315.554
						c3.604-7.745,6.715-14.43,7.036-15.73l6.653,1.537c-0.425,1.841-2.48,6.291-7.498,17.074
						C1925.15,2714.026,1848.401,2878.913,1879.797,2970.299z"/>
				</g>
			</g>
			<g>
				
					<linearGradient id="SVGID_00000067928475550681305000000013529441084700081822_" gradientUnits="userSpaceOnUse" x1="-4399.3501" y1="200.0629" x2="-3721.0342" y2="1982.396" gradientTransform="matrix(0.9999 -0.0114 0.0114 0.9999 5567.7637 329.1732)">
					<stop  offset="0" style="stop-color:#AA80F9"/>
					<stop  offset="0.9964" style="stop-color:#6165D7"/>
				</linearGradient>
				<path style="fill:url(#SVGID_00000067928475550681305000000013529441084700081822_);" d="M1452.926,1928.864
					c-36.631,63.351-10.35,129.272,16.14,173.996c7.024,0.325,10.982,2.302,17.972,4.196
					c63.089,17.087,93.643,10.934,158.486,17.958c13.957,1.512,56.273-6.509,73.352-10.896l31.711-8.688
					c0,0,65.814-155.039-17.753-201.991c-83.567-46.951-39.74-202.129-26.654-287.198c8.036-52.239-5.022-78.703-5.151-98.372
					c-1.361-208.207,64.431-266.416,22.397-333.849c-46.402-74.441-139.862-24.812-194.618-103.125
					c-61.829-88.432,15.831-211.086-61.38-281.696c-13.238-12.106-27.168-24.184-49.748-32.104
					c-55.734-19.547-103.444,11.028-141.395-37.644c-76.281-97.835-208.226-137.174-294.9-43.188
					c-85.542,92.758-2.618,287.678,225.483,450.889c148.983,134.565,148.829,173.035,130.028,265.971
					c-13.166,65.096-91.989,232.867-1.056,304.826C1426.774,1779.911,1494.803,1856.442,1452.926,1928.864z"/>
				<g>
					<defs>
						<path id="SVGID_00000170249962739934267630000008641117203056669104_" d="M1507.039,2157.481l237.931-46.546
							c0,0,71.432-160.543-12.136-207.495c-83.568-46.952-39.74-202.129-26.654-287.198
							c35.508-230.815-235.234-220.686-215.073-520.21c5.362-79.664,44.25-230.45-23.679-296.831
							c-77.39-75.626-142.336-7.153-191.142-69.749c-76.282-97.834-208.227-137.172-294.9-43.187
							c-85.543,92.759-2.618,287.679,225.481,450.89c148.984,134.565,148.828,173.035,130.029,265.971
							c-13.167,65.097-91.988,232.868-1.056,304.827c90.932,71.958,158.96,148.49,117.084,220.912
							C1389.207,2039.063,1507.039,2157.481,1507.039,2157.481z"/>
					</defs>
					<clipPath id="SVGID_00000168831571561359620590000007514743376910163614_">
						<use xlink:href="#SVGID_00000170249962739934267630000008641117203056669104_"  style="overflow:visible;"/>
					</clipPath>
					<g style="opacity:0.5;clip-path:url(#SVGID_00000168831571561359620590000007514743376910163614_);">
						<path style="fill:#FCFDFE;" d="M1611.439,2126.076l4.793-0.359c-1.733-26.479-3.834-53.158-6.243-79.293
							c-17.855-193.513-54.556-378.118-109.089-548.689c-46.209-144.529-105.835-281.029-177.223-405.706
							c-57.41-100.265-122.704-193.463-194.069-277.006c-50.17-58.728-102.798-112.117-156.425-158.675
							c-9.345-8.116-19.4-15.921-29.125-23.469c-12.956-10.056-26.355-20.456-38.171-31.671l-3.464,3.151
							c11.978,11.369,25.466,21.839,38.51,31.964c9.677,7.51,19.682,15.278,28.931,23.31
							c53.46,46.413,105.931,99.641,155.958,158.204c71.189,83.335,136.327,176.313,193.605,276.347
							c71.24,124.42,130.747,260.647,176.867,404.898c54.442,170.283,91.083,354.593,108.908,547.808
							C1607.611,2072.99,1609.709,2099.63,1611.439,2126.076z"/>
						<path style="fill:#FCFDFE;" d="M1399.443,1249.307l4.469-1.714c-75.552-176.626,23.02-493.283,24.025-496.46l-4.606-1.179
							C1422.322,753.147,1323.287,1071.267,1399.443,1249.307z"/>
						<path style="fill:#FCFDFE;" d="M1563.76,1761.461l4.643-1.225c-36.095-125.891-279.491-231.81-281.946-232.866l-2.089,4.054
							C1286.802,1532.471,1528.23,1637.536,1563.76,1761.461z"/>
						<path style="fill:#FCFDFE;" d="M1577.553,1834.657l4.786-0.451c-7.451-85.04,31.414-205.61,109.438-339.493
							c3.923-6.732,3.923-6.732,3.862-7.576l-4.792,0.395l2.396-0.197l-2.274-0.646c-0.206,0.474-1.687,3.017-3.406,5.963
							C1609.095,1627.3,1570.025,1748.758,1577.553,1834.657z"/>
						<path style="fill:#FCFDFE;" d="M1607.539,2077.807l4.474-1.699c-36.787-87.037-180.148-126.613-181.589-127.002l-1.426,4.283
							C1430.42,1953.773,1571.594,1992.764,1607.539,2077.807z"/>
						<path style="fill:#FCFDFE;" d="M1618.661,2126.716c23.114-73.23,69.503-143.109,141.819-213.629l-3.449-3.042
							c-72.87,71.063-119.638,141.552-142.977,215.496L1618.661,2126.716z"/>
						<path style="fill:#FCFDFE;" d="M1166.97,867.695l4.362-1.943c-47.948-95.919-74.148-207.45-82.756-244.099
							c-2.084-8.872-2.829-11.992-3.292-13.033l-4.442,1.774c0.343,0.799,1.534,5.871,3.042,12.292
							C1092.519,659.453,1118.803,771.338,1166.97,867.695z"/>
						<path style="fill:#FCFDFE;" d="M1270.01,1012.487l3.578-3.039c-71.768-73.139-286.731-79.612-295.847-79.852l-0.229,4.457
							C979.723,934.113,1199.582,940.715,1270.01,1012.487z"/>
					</g>
				</g>
			</g>
			<g>
				
					<linearGradient id="SVGID_00000183970832746034882570000005181295005701032095_" gradientUnits="userSpaceOnUse" x1="1113.7223" y1="-240.8523" x2="2026.8977" y2="1262.4697" gradientTransform="matrix(0.9932 -0.1163 0.1163 0.9932 -262.1815 1394.2852)">
					<stop  offset="0.0036" style="stop-color:#E38DDD"/>
					<stop  offset="1" style="stop-color:#9571F6"/>
				</linearGradient>
				<path style="fill:url(#SVGID_00000183970832746034882570000005181295005701032095_);" d="M1614.871,2610.905
					c16.138-3.975-12.966-86.265,22.134-199.995c8.769-28.414,45.849-186.706,166.697-205.081
					c23.458-3.567,46.917-7.136,70.375-10.703c14.133-55.265,17.215-109.97-56.609-121.95
					c-114.645-18.604-136.224-203.844-112.354-273.038c29.543-85.641,94.057-286.287-82.63-317.709
					c-147.092-26.161-248.43-14.349-276.126-187.185c-27.697-172.839-139.057-269.736-304.679-240.016
					c-174.292,31.275-340.612-173.054-476.789-82.419c-237.279,157.933,28.575,515.015,344.39,590.708
					c315.813,75.694,151.705,199.881,157.978,343.228c1.336,13.274,4.432,33.75,12.673,57.224
					c50.74,144.521,208.632,152.127,333.528,260.796C1583.791,2372.964,1587.683,2617.604,1614.871,2610.905z"/>
				<g>
					<defs>
						<path id="SVGID_00000175293941678879390270000010663435550491669642_" d="M1483.417,2285.659l381.894-47.261
							c16.611-53.924,34.62-151.839-47.842-165.22c-114.646-18.606-136.225-203.846-112.355-273.039
							c29.543-85.64,94.057-286.287-82.63-317.71c-147.091-26.16-248.428-14.348-276.125-187.185
							c-27.698-172.837-139.058-269.734-304.681-240.015c-174.291,31.275-340.611-173.056-476.788-82.418
							c-237.28,157.931,28.575,515.012,344.388,590.706s151.707,199.88,157.979,343.229
							c8.562,195.702,281.927,121.905,363.021,189.753C1493.852,2149.687,1491.592,2233.541,1483.417,2285.659z"/>
					</defs>
					<clipPath id="SVGID_00000152953388288717304790000016561615805213299384_">
						<use xlink:href="#SVGID_00000175293941678879390270000010663435550491669642_"  style="overflow:visible;"/>
					</clipPath>
					<g style="opacity:0.5;clip-path:url(#SVGID_00000152953388288717304790000016561615805213299384_);">
						<path style="fill:#FCFDFE;" d="M1656.972,2206.545l7.954-2.517c-178.75-547.429-638.811-1002.838-1200.647-1188.505
							l-2.915,7.469C1020.832,1207.878,1478.964,1661.39,1656.972,2206.545z"/>
						<path style="fill:#FCFDFE;" d="M1532.362,1916.681l8.28-0.987c-23.742-225.187,161.392-425.06,163.267-427.053l-6.144-5.174
							C1695.866,1485.483,1508.247,1687.944,1532.362,1916.681z"/>
						<path style="fill:#FCFDFE;" d="M1621.173,2106.764l6.894-4.592c-135.693-187.236-576.877-163.296-581.318-163.031l0.303,7.885
							C1051.445,1946.765,1488.06,1923.088,1621.173,2106.764z"/>
						<path style="fill:#FCFDFE;" d="M1186.892,1464.036l7.271-4.025c-93.654-157.051-6.055-426.412-5.16-429.115l-7.928-2.195
							C1180.167,1031.437,1091.508,1304.085,1186.892,1464.036z"/>
						<path style="fill:#FCFDFE;" d="M894.925,1231.164l3.634-7.196c-197.112-85.859-478.467,8.221-481.289,9.186l2.627,7.429
							C422.682,1239.628,700.885,1146.64,894.925,1231.164z"/>
					</g>
				</g>
			</g>
		</g>
		<g>
			<defs>
				
					<rect id="SVGID_00000071542049345869446120000001965685613170250672_" x="1871.013" y="1864.448" width="1282.483" height="1231.047"/>
			</defs>
			<clipPath id="SVGID_00000001629229787915317080000006373630365516143008_">
				<use xlink:href="#SVGID_00000071542049345869446120000001965685613170250672_"  style="overflow:visible;"/>
			</clipPath>
			<g style="clip-path:url(#SVGID_00000001629229787915317080000006373630365516143008_);">
				<g>
					<defs>
						<path id="SVGID_00000100350167953797411150000007994273386850004376_" d="M1991.77,3511.166l192.562,105.205
							c0,0,90.216-78.976,81.114-174.469c-18.572-194.836,153.367-197.504,225.215-209.394
							c108.353-17.932,196.016-80.989,104.742-179.16c-91.274-98.17,115.365-209.853,294.527-213.594
							c175.323-3.66,269.984-317.429-110.209-344.349c-227.05-16.076-303.809,192.027-367.556,287.902
							c-63.747,95.875-218,22.412-233.946,173.368c-13.621,128.944,27.688,250.96-75.222,288.501
							C2000.087,3282.718,1949.288,3360.094,1991.77,3511.166z"/>
					</defs>
					<clipPath id="SVGID_00000183239814528539722950000005131075627009875901_">
						<use xlink:href="#SVGID_00000100350167953797411150000007994273386850004376_"  style="overflow:visible;"/>
					</clipPath>
					
						<linearGradient id="SVGID_00000082362504817524437940000015649960226451841935_" gradientUnits="userSpaceOnUse" x1="6895.7676" y1="127.6561" x2="6458.9214" y2="1369.2208" gradientTransform="matrix(0.8775 0.4795 -0.4795 0.8775 -3044.9133 -841.8858)">
						<stop  offset="0" style="stop-color:#AA80F9"/>
						<stop  offset="0.9964" style="stop-color:#6165D7"/>
					</linearGradient>
					
						<path style="clip-path:url(#SVGID_00000183239814528539722950000005131075627009875901_);fill:url(#SVGID_00000082362504817524437940000015649960226451841935_);" d="
						M1991.77,3511.166l192.562,105.205c0,0,90.216-78.976,81.114-174.469c-18.572-194.836,153.367-197.504,225.215-209.394
						c108.353-17.932,183.73-76.407,119.657-176.06c-72.496-112.751,100.449-212.954,279.612-216.694
						c175.323-3.66,269.984-317.429-110.209-344.349c-227.05-16.076-303.809,192.027-367.556,287.902
						c-63.747,95.875-218,22.412-233.946,173.368c-13.621,128.944,27.688,250.96-75.222,288.501
						C2000.087,3282.718,1949.288,3360.094,1991.77,3511.166z"/>
					<g style="opacity:0.5;clip-path:url(#SVGID_00000183239814528539722950000005131075627009875901_);">
						<path style="fill:#BEB8F2;" d="M2065.347,3574.571l4.399,1.452c0.899-2.725,91.9-275.184,263.555-518.081
							c158.139-223.775,419.087-467.517,764.18-357.925l1.402-4.415c-153.619-48.786-303.615-32.824-445.823,47.441
							c-113.6,64.118-222.473,169.191-323.597,312.3C2157.433,3298.806,2066.25,3571.841,2065.347,3574.571z"/>
						<path style="fill:#BEB8F2;" d="M2595.084,2779.152l4.31,1.7c56.64-143.397,211.992-306.173,213.554-307.801l-3.34-3.21
							C2808.039,2471.477,2652.056,2634.913,2595.084,2779.152z"/>
						<path style="fill:#BEB8F2;" d="M2691.303,2728.268c183.427-10.495,288.931,100.268,289.974,101.387l3.388-3.157
							c-1.058-1.139-107.951-113.478-293.626-102.856L2691.303,2728.268z"/>
						<path style="fill:#BEB8F2;" d="M2229.731,3222.854c150.166-166.827,436.52-71.415,439.231-70.252l2.098-4.125
							c-2.553-1.393-293.274-97.031-444.772,71.278L2229.731,3222.854z"/>
						<path style="fill:#BEB8F2;" d="M2272.847,3140.955l4.435,1.346c41.639-137.043-45.586-294.649-46.473-296.226l-4.038,2.269
							C2227.647,2849.906,2313.908,3005.825,2272.847,3140.955z"/>
						<path style="fill:#BEB8F2;" d="M2085.01,3533.464c46.619-71.396,185.396-72.275,186.792-72.277l-0.002-4.631
							c-5.802,0-142.676,0.872-190.669,74.375L2085.01,3533.464z"/>
						<path style="fill:#BEB8F2;" d="M2105.692,3468.654l4.381,1.504c21.906-63.761-30.754-176.894-48.059-214.07
							c-2.445-5.254-4.555-9.789-4.773-10.671l-4.513,1.042c0.288,1.249,1.683,4.268,5.087,11.583
							C2074.925,3294.8,2126.991,3406.659,2105.692,3468.654z"/>
					</g>
				</g>
				<g>
					
						<linearGradient id="SVGID_00000121277494820753776920000006937217420923832494_" gradientUnits="userSpaceOnUse" x1="-4130.3853" y1="1470.5516" x2="-3670.2205" y2="2679.6736" gradientTransform="matrix(-0.9999 -0.0114 -0.0114 0.9999 -1526.7635 329.1732)">
						<stop  offset="0" style="stop-color:#AA80F9"/>
						<stop  offset="0.9964" style="stop-color:#6165D7"/>
					</linearGradient>
					<path style="fill:url(#SVGID_00000121277494820753776920000006937217420923832494_);" d="M2395.279,2762.152
						c24.85,42.977,7.021,87.698-10.95,118.038c-4.765,0.22-7.45,1.562-12.192,2.846c-42.799,11.592-63.527,7.417-107.516,12.183
						c-9.468,1.026-38.175-4.416-49.761-7.392l-21.513-5.894c0,0-44.647-105.177,12.043-137.029
						c56.691-31.851,26.959-137.123,18.082-194.833c-5.451-35.438,3.407-53.392,3.495-66.735
						c0.924-141.246-43.71-180.735-15.194-226.481c31.479-50.5,94.881-16.832,132.028-69.959
						c41.945-59.991-10.74-143.199,41.64-191.1c8.981-8.212,18.431-16.406,33.749-21.779c37.81-13.26,70.175,7.481,95.921-25.538
						c51.749-66.371,141.259-93.058,200.058-29.298c58.031,62.927,1.776,195.159-152.966,305.88
						c-101.069,91.288-100.964,117.385-88.21,180.433c8.931,44.161,62.405,157.975,0.717,206.792
						C2413.02,2661.103,2366.869,2713.021,2395.279,2762.152z"/>
					<g>
						<defs>
							<path id="SVGID_00000079484964227187026180000005488884731516987581_" d="M2358.568,2917.244l-161.411-31.577
								c0,0-48.458-108.911,8.233-140.763c56.692-31.851,26.959-137.122,18.082-194.833
								c-24.088-156.583,159.581-149.712,145.904-352.907c-3.638-54.044-30.019-156.336,16.064-201.368
								c52.5-51.304,96.56-4.853,129.669-47.317c51.749-66.37,141.26-93.056,200.058-29.298
								c58.032,62.927,1.776,195.159-152.965,305.88c-101.07,91.288-100.964,117.385-88.211,180.433
								c8.933,44.161,62.404,157.976,0.716,206.792s-107.838,100.735-79.429,149.865
								C2438.505,2836.91,2358.568,2917.244,2358.568,2917.244z"/>
						</defs>
						<clipPath id="SVGID_00000155841052363655966130000002075098638716380338_">
							<use xlink:href="#SVGID_00000079484964227187026180000005488884731516987581_"  style="overflow:visible;"/>
						</clipPath>
						<g style="opacity:0.5;clip-path:url(#SVGID_00000155841052363655966130000002075098638716380338_);">
							<path style="fill:#FCFDFE;" d="M2287.745,2895.939l-3.251-0.244c1.175-17.963,2.601-36.062,4.235-53.792
								c12.113-131.278,37.01-256.512,74.005-372.227c31.348-98.048,71.798-190.648,120.227-275.228
								c38.946-68.019,83.241-131.244,131.655-187.919c34.035-39.841,69.737-76.059,106.117-107.644
								c6.339-5.506,13.161-10.8,19.758-15.921c8.79-6.822,17.879-13.877,25.895-21.485l2.35,2.138
								c-8.126,7.713-17.276,14.815-26.125,21.684c-6.565,5.095-13.352,10.364-19.627,15.813
								c-36.267,31.486-71.862,67.596-105.8,107.325c-48.294,56.534-92.483,119.61-131.34,187.471
								c-48.329,84.406-88.698,176.822-119.985,274.68c-36.933,115.519-61.79,240.553-73.883,371.629
								C2290.341,2859.926,2288.918,2877.999,2287.745,2895.939z"/>
							<path style="fill:#FCFDFE;" d="M2431.561,2301.146l-3.032-1.163c51.254-119.822-15.616-334.64-16.299-336.795l3.125-0.8
								C2416.04,1964.554,2483.224,2180.365,2431.561,2301.146z"/>
							<path style="fill:#FCFDFE;" d="M2320.089,2648.587l-3.149-0.831c24.487-85.404,189.605-157.258,191.27-157.974l1.417,2.75
								C2507.976,2493.242,2344.193,2564.518,2320.089,2648.587z"/>
							<path style="fill:#FCFDFE;" d="M2310.732,2698.243l-3.247-0.306c5.055-57.691-21.311-139.484-74.242-230.31
								c-2.661-4.567-2.661-4.567-2.62-5.14l3.25,0.268l-1.625-0.134l1.543-0.439c0.14,0.322,1.144,2.047,2.311,4.045
								C2289.334,2557.573,2315.839,2639.969,2310.732,2698.243z"/>
							<path style="fill:#FCFDFE;" d="M2290.39,2863.194l-3.035-1.153c24.956-59.045,122.211-85.893,123.189-86.157l0.968,2.906
								C2410.547,2779.05,2314.775,2805.501,2290.39,2863.194z"/>
							<path style="fill:#FCFDFE;" d="M2282.845,2896.374c-15.68-49.679-47.15-97.084-96.209-144.924l2.34-2.064
								c49.434,48.208,81.162,96.028,96.995,146.191L2282.845,2896.374z"/>
							<path style="fill:#FCFDFE;" d="M2589.269,2042.263l-2.959-1.318c32.528-65.071,50.301-140.732,56.141-165.595
								c1.414-6.019,1.919-8.135,2.234-8.842l3.013,1.203c-0.232,0.542-1.04,3.983-2.063,8.339
								C2639.776,1900.993,2621.945,1976.895,2589.269,2042.263z"/>
							<path style="fill:#FCFDFE;" d="M2519.367,2140.489l-2.427-2.062c48.687-49.617,194.516-54.008,200.7-54.171l0.156,3.023
								C2716.296,2087.32,2567.145,2091.799,2519.367,2140.489z"/>
						</g>
					</g>
				</g>
				<g>
					
						<linearGradient id="SVGID_00000036933232646480507100000011982797549611420816_" gradientUnits="userSpaceOnUse" x1="1377.9771" y1="921.5872" x2="1997.4688" y2="1941.4301" gradientTransform="matrix(-0.9932 -0.1163 -0.1163 0.9932 4303.1816 1394.2852)">
						<stop  offset="0.0036" style="stop-color:#E38DDD"/>
						<stop  offset="1" style="stop-color:#9571F6"/>
					</linearGradient>
					<path style="fill:url(#SVGID_00000036933232646480507100000011982797549611420816_);" d="M2285.416,3224.844
						c-10.948-2.697,8.796-58.521-15.016-135.675c-5.949-19.276-31.104-126.66-113.086-139.125
						c-15.914-2.42-31.829-4.841-47.742-7.261c-9.588-37.491-11.678-74.603,38.403-82.73
						c77.774-12.621,92.414-138.286,76.22-185.227c-20.042-58.098-63.808-194.215,56.055-215.532
						c99.786-17.747,168.533-9.734,187.322-126.985c18.789-117.252,94.335-182.987,206.692-162.825
						c118.239,21.217,231.069-117.399,323.451-55.912c160.968,107.14-19.385,349.382-233.632,400.732
						c-214.245,51.35-102.916,135.598-107.171,232.844c-0.906,9.005-3.007,22.896-8.597,38.821
						c-34.422,98.042-141.535,103.202-226.263,176.922C2306.5,3063.427,2303.86,3229.388,2285.416,3224.844z"/>
					<g>
						<defs>
							<path id="SVGID_00000120538453192700240500000011847189630744612779_" d="M2374.593,3004.199l-259.074-32.062
								c-11.269-36.581-23.486-103.006,32.456-112.084c77.775-12.622,92.414-138.287,76.22-185.228
								c-20.042-58.098-63.808-194.215,56.056-215.532c99.786-17.747,168.531-9.733,187.321-126.985
								c18.79-117.251,94.336-182.986,206.693-162.824c118.238,21.217,231.068-117.4,323.45-55.912
								c160.969,107.139-19.385,349.38-233.631,400.731s-102.917,135.597-107.172,232.844
								c-5.809,132.762-191.258,82.699-246.271,128.727C2367.515,2911.957,2369.048,2968.843,2374.593,3004.199z"/>
						</defs>
						<clipPath id="SVGID_00000005254900925471953400000002292106811566906525_">
							<use xlink:href="#SVGID_00000120538453192700240500000011847189630744612779_"  style="overflow:visible;"/>
						</clipPath>
						<g style="opacity:0.5;clip-path:url(#SVGID_00000005254900925471953400000002292106811566906525_);">
							<path style="fill:#FCFDFE;" d="M2256.855,2950.529l-5.396-1.707c121.263-371.372,433.365-680.318,814.51-806.273l1.978,5.067
								C2688.408,2273.04,2377.615,2580.699,2256.855,2950.529z"/>
							<path style="fill:#FCFDFE;" d="M2341.39,2753.887l-5.617-0.67c16.107-152.765-109.487-288.358-110.759-289.709l4.168-3.51
								C2230.47,2461.366,2357.749,2598.714,2341.39,2753.887z"/>
							<path style="fill:#FCFDFE;" d="M2281.141,2882.838l-4.677-3.115c92.053-127.02,391.35-110.779,394.362-110.599l-0.206,5.349
								C2667.64,2774.296,2371.444,2758.234,2281.141,2882.838z"/>
							<path style="fill:#FCFDFE;" d="M2575.754,2446.816l-4.932-2.73c63.534-106.542,4.107-289.275,3.501-291.108l5.378-1.489
								C2580.316,2153.344,2640.462,2338.306,2575.754,2446.816z"/>
							<path style="fill:#FCFDFE;" d="M2773.823,2288.837l-2.465-4.882c133.719-58.246,324.589,5.577,326.503,6.232l-1.782,5.04
								C3094.189,2294.579,2905.458,2231.497,2773.823,2288.837z"/>
						</g>
					</g>
				</g>
			</g>
		</g>
		<g>
			<g>
				<g>
					<g>
						<path style="fill:#BFC8D6;" d="M3056.533,3090.525l-2010.687-17.38v51.425c0,13.958,8.77,25.826,20.647,27.941
							l568.562,101.264c6.748,1.202,13.59,1.521,20.399,0.95l1379.229-115.458c12.313-1.031,21.85-12.936,21.85-27.276V3090.525z"/>
						<g>
							<path style="fill:#BFC8D6;" d="M2316.597,3008.115l-1277.954,94.075c-22.868,1.683-41.461-16.204-41.461-39.958v-951.656
								c0-23.753,18.594-43.01,41.461-43.01h1277.954c18.84,0,34.073,17.407,34.073,38.88v860.279
								C2350.67,2988.199,2335.437,3006.728,2316.597,3008.115z"/>
							<path style="fill:#FFFFFF;" d="M2336.974,3008.115l-1277.953,94.075c-22.869,1.683-41.462-16.204-41.462-39.958v-951.656
								c0-23.753,18.593-43.01,41.462-43.01h1277.953c18.84,0,34.073,17.407,34.073,38.88v860.279
								C2371.047,2988.199,2355.815,3006.728,2336.974,3008.115z"/>
							
								<linearGradient id="SVGID_00000008833960366882955010000008352507586981498044_" gradientUnits="userSpaceOnUse" x1="1749.2153" y1="2471.7327" x2="-389.3902" y2="5325.8516">
								<stop  offset="0" style="stop-color:#FFC444"/>
								<stop  offset="0.9964" style="stop-color:#F36F56"/>
							</linearGradient>
							<path style="fill:url(#SVGID_00000008833960366882955010000008352507586981498044_);" d="M2297.163,2947.464l-1190.28,81.717
								c-18.609,1.277-33.733-13.404-33.733-32.796v-833.176c0-19.391,15.123-35.177,33.733-35.257l1190.28-5.131
								c15.542-0.067,28.113,14.197,28.113,31.859v758.874C2325.275,2931.216,2312.704,2946.397,2297.163,2947.464z"/>
							<path style="fill:#FFFFFF;" d="M1743.131,2093.597c0,8.842-6.578,16.031-14.7,16.057c-8.133,0.026-14.732-7.137-14.732-16
								s6.599-16.052,14.732-16.058C1736.554,2077.591,1743.131,2084.754,1743.131,2093.597z"/>
							<path style="opacity:0.48;fill:#FFFFFF;" d="M1059.016,3102.191l1271.488-93.599l6.47-0.476
								c8.644-0.636,16.504-4.909,22.508-11.392c-91.498-5.007-148.329-37.477-184.989-71.028
								c-73.621-67.377-60.851-133.822-140.243-178.121c-99.023-55.255-176.884,14.76-252.027-54.32
								c-45.555-41.881-23.19-73.112-79.245-135.698c-62.086-69.319-102.507-46.018-164.903-108.405
								c-78.894-78.885-39.436-140.259-107.394-196.896c-82.443-68.709-171.353-5.115-249.832-71.009
								c-33.849-28.42-52.422-69.738-62.12-113.68h-59.709c-22.868,0-41.462,19.256-41.462,43.01v951.656
								C1017.559,3085.984,1036.149,3103.871,1059.016,3102.191z"/>
						</g>
						
							<linearGradient id="SVGID_00000046332073150471950190000009236724452003353502_" gradientUnits="userSpaceOnUse" x1="1045.8463" y1="3105.3538" x2="3056.5332" y2="3105.3538">
							<stop  offset="0.494" style="stop-color:#EBEFF2"/>
							<stop  offset="1" style="stop-color:#FFFFFF"/>
						</linearGradient>
						<path style="fill:url(#SVGID_00000046332073150471950190000009236724452003353502_);" d="M2397.186,3002.897l-1351.34,99.023
							l589.209,104.941c6.748,1.201,13.59,1.521,20.399,0.951l1401.079-117.287l-637.851-86.956
							C2411.549,3002.597,2404.354,3002.372,2397.186,3002.897z"/>
						<polygon style="fill:#D8DEE8;" points="1243.028,3102.772 2368.059,3019.104 2716.246,3066.188 1600.906,3155.626 						"/>
					</g>
				</g>
			</g>
			<g>
				<defs>
					<path id="SVGID_00000003074107626212017810000011243835514433512882_" d="M2638.746,2082.896l-604.536,187.201
						c0,0,16.92-657.275,15.564-640.109c-1.354,17.164-844.253-547.183-1170.782-435.816
						c-326.528,111.365-660.65,853.597-182.249,1203.906c478.402,350.31,597.897-21.827,511.572,665.438l1027.991-70.01
						l420.535-546.043L2638.746,2082.896z"/>
				</defs>
				<clipPath id="SVGID_00000124872563788404371090000013842189428483293572_">
					<use xlink:href="#SVGID_00000003074107626212017810000011243835514433512882_"  style="overflow:visible;"/>
				</clipPath>
				<g style="clip-path:url(#SVGID_00000124872563788404371090000013842189428483293572_);">
					
						<linearGradient id="SVGID_00000051346069416246386180000002514752022270720930_" gradientUnits="userSpaceOnUse" x1="638.9384" y1="981.5605" x2="576.6387" y2="1229.1196" gradientTransform="matrix(-0.3992 -0.9169 -0.9169 0.3992 3664.4155 2400.708)">
						<stop  offset="0" style="stop-color:#AB316D"/>
						<stop  offset="1" style="stop-color:#792D3D"/>
					</linearGradient>
					<path style="fill:url(#SVGID_00000051346069416246386180000002514752022270720930_);" d="M2400.743,2273.827
						c0,0,18.897-22.596,54.35-23.666c35.453-1.069,83.765-22.106,104.511-23.956c5.005-0.447,7.487-1.885,7.913-3.711
						c0.875-3.761-22.156-9.247-42.586-9.926c-36.225-1.206-57.354,12.694-62.239,5.549c-5.462-7.988,17.921-29.791,13.638-34.674
						c-3.32-3.784-19.217,8.367-36.234,15.777c-12.078,5.26-59.319,61.749-59.319,61.749L2400.743,2273.827z"/>
					
						<linearGradient id="SVGID_00000125572091141445065810000004537793367428994203_" gradientUnits="userSpaceOnUse" x1="-2554.9302" y1="781.2208" x2="-1937.1472" y2="781.2208" gradientTransform="matrix(-0.7576 -0.6528 -0.6528 0.7576 859.7039 356.3905)">
						<stop  offset="0" style="stop-color:#FF9085"/>
						<stop  offset="1" style="stop-color:#FB6FBB"/>
					</linearGradient>
					<path style="fill:url(#SVGID_00000125572091141445065810000004537793367428994203_);" d="M2401.896,2232.812
						c8.79,17.74,17.58,35.479,26.369,53.219c-8.693,47.765-26.413,118.302-66.037,195.601
						c-42.644,83.19-139.848,272.818-310.996,290.024c-130.526,13.122-240.029-80.334-281.48-116.094
						c-38.336-33.073-72.726-62.245-89.423-108.77c-26.338-73.39,0.253-163.875,64.045-249.085
						c31.405-41.949,96.754-32.915,115.318,16.088c29.287,77.31,78.676,131.007,135.419,141.499
						c63.801,11.797,134.852-31.422,165.092-49.778c44.969-27.297,56.433-48.292,112.365-91.537
						C2324.278,2273.999,2371.13,2248.143,2401.896,2232.812z"/>
					<g style="opacity:0.3;">
						
							<linearGradient id="SVGID_00000060727596859703881520000009876237155810222732_" gradientUnits="userSpaceOnUse" x1="-2554.9302" y1="787.9135" x2="-1936.0542" y2="787.9135" gradientTransform="matrix(-0.7576 -0.6528 -0.6528 0.7576 859.7039 356.3905)">
							<stop  offset="0" style="stop-color:#FF9085"/>
							<stop  offset="1" style="stop-color:#FB6FBB"/>
						</linearGradient>
						<path style="fill:url(#SVGID_00000060727596859703881520000009876237155810222732_);" d="M1882.311,2630.585
							c48.884-11.006,67.334-56.398,134.342-60.467c84.731-5.145,121.137,63.433,175.335,45.347
							c44.237-14.761,51.586-70.994,82.43-143.382c23.924-56.148,65.414-130.012,142.756-208.436
							c3.697,7.461,7.394,14.923,11.091,22.384c-8.693,47.765-26.413,118.302-66.037,195.601
							c-42.644,83.19-139.848,272.818-310.996,290.024c-130.526,13.122-240.029-80.334-281.48-116.094
							c-38.336-33.073-72.726-62.245-89.423-108.77c-4.62-12.876-7.599-26.281-9.047-40.088
							C1772.356,2622.098,1838.429,2640.464,1882.311,2630.585z"/>
					</g>
					
						<linearGradient id="SVGID_00000078024827373970385790000001697228402033356930_" gradientUnits="userSpaceOnUse" x1="-2369.6326" y1="2614.3103" x2="-1683.8795" y2="2614.3103" gradientTransform="matrix(-1 0 0 1 -421.0958 0)">
						<stop  offset="0" style="stop-color:#FF9085"/>
						<stop  offset="1" style="stop-color:#FB6FBB"/>
					</linearGradient>
					<path style="fill:url(#SVGID_00000078024827373970385790000001697228402033356930_);" d="M1263.005,2955.656
						c-1.034-50.558-3.745-329.526,131.318-530.135c30.959-45.984,85.734-127.341,190.897-181.17
						c40.995-20.983,77.965-31.805,103.352-37.693c29.992,4.458,59.985,8.917,89.977,13.375
						c28.707,26.159,67.703,67.185,102.136,125.238c21.802,36.759,57.884,97.593,66.241,176.12
						c9.739,91.517-26.637,127.589-56.514,270.117c-16.203,77.3-21.316,142.121-23.102,184.818
						c-103.757,8.917-207.515,17.833-311.272,26.75c-1.641-49.181-5.951-103.878-14.591-162.931
						c-8.941-61.114-20.995-116.467-34.045-165.364c-13.947,55.563-26.229,120.46-32.829,193.329
						c-4.568,50.433-5.746,97.3-4.864,139.83c-12.605,4.967-83.579,31.566-151.988-4.864
						C1291.002,2988.848,1273.498,2969.704,1263.005,2955.656z"/>
					
						<linearGradient id="SVGID_00000173149830619848397290000010067729205538158742_" gradientUnits="userSpaceOnUse" x1="-1086.9684" y1="1804.2308" x2="227.2397" y2="1804.2308" gradientTransform="matrix(-0.9503 0.3115 0.3115 0.9503 175.1468 278.6239)">
						<stop  offset="0" style="stop-color:#311944"/>
						<stop  offset="1" style="stop-color:#6B3976"/>
					</linearGradient>
					<path style="fill:url(#SVGID_00000173149830619848397290000010067729205538158742_);" d="M1761.915,2035.705
						c48.246-75.225,72.369-112.838,73.393-151.133c2.238-83.679-61.634-156.683-120.757-191.447
						c-82.972-48.787-175.681-33.486-234.351-23.803c-75.385,12.442-74.404,30.824-112.567,27.374
						c-105.476-9.535-117.142-150.333-235.892-222.412c-131.024-79.529-299.641-19.092-341.665-2.137
						c-223.926,90.343-276.471,327.072-281.442,351.414c-46.064,225.53,80.67,437.879,234.334,533.707
						c43.939,27.401,156.348,97.501,246.68,57.268c86.986-38.742,79.645-146.901,199.448-204.3
						c16.738-8.019,67.459-32.32,132.945-28.966c73.954,3.787,96.928,39.269,174.956,40.722
						c63.268,1.179,110.652-20.986,120.083-25.549C1676.398,2167.741,1705.719,2123.326,1761.915,2035.705z"/>
					<g style="opacity:0.3;">
						
							<linearGradient id="SVGID_00000001637049482147484680000014779045893185515963_" gradientUnits="userSpaceOnUse" x1="-1019.3232" y1="1941.9865" x2="294.9395" y2="1941.9865" gradientTransform="matrix(-0.9435 0.3314 0.3314 0.9435 203.5732 290.5245)">
							<stop  offset="0" style="stop-color:#311944"/>
							<stop  offset="1" style="stop-color:#6B3976"/>
						</linearGradient>
						<path style="fill:url(#SVGID_00000001637049482147484680000014779045893185515963_);" d="M496.044,1893.376
							c50.953,219.52,101.144,287.43,144.981,289.431c61.336,2.799,95.581-124.067,189.398-125.48
							c84.384-1.27,108.958,100.579,185.88,97.822c97.231-3.486,105.746-167.929,213.664-195.705
							c128.444-33.058,218.673,173.56,370.638,162.248c46.027-3.426,102.65-27.269,165.15-103.519
							c-1.879,3.071-3.783,6.183-5.744,9.387c-54.342,88.782-82.722,133.804-141.422,163.747
							c-9.333,4.761-56.241,27.916-119.519,28.068c-78.041,0.187-101.756-34.804-175.773-37.035
							c-65.542-1.976-115.741,23.385-132.307,31.754c-118.57,59.905-108.957,167.885-195.11,208.447
							c-89.466,42.124-203.324-25.598-247.829-52.07C604.297,2284.968,481.435,2099.608,496.044,1893.376z"/>
					</g>
					
						<linearGradient id="SVGID_00000160172627818045840440000008239670139521076911_" gradientUnits="userSpaceOnUse" x1="-2091.4707" y1="2419.2053" x2="-2104.8206" y2="1988.6621" gradientTransform="matrix(-1 0 0 1 -421.0958 0)">
						<stop  offset="0" style="stop-color:#AB316D"/>
						<stop  offset="1" style="stop-color:#792D3D"/>
					</linearGradient>
					<path style="fill:url(#SVGID_00000160172627818045840440000008239670139521076911_);" d="M1763.687,2071.312
						c0,0,2.525,64.978,0,108.597c-1.848,31.932,25.765,50.121,25.765,50.121s15.162,25.982-66.835,30.323
						c-81.997,4.342-161.786,0-161.786,0s80.169-53.322,98.483-67.491c18.314-14.169,28.141-120.108,16.414-187.205
						L1763.687,2071.312z"/>
					
						<linearGradient id="SVGID_00000102515469207193521050000006783031688011581623_" gradientUnits="userSpaceOnUse" x1="-2180.8062" y1="2110.3438" x2="-2058.9861" y2="1711.5067" gradientTransform="matrix(-1 0 0 1 -421.0958 0)">
						<stop  offset="0" style="stop-color:#AB316D"/>
						<stop  offset="1" style="stop-color:#792D3D"/>
					</linearGradient>
					<path style="fill:url(#SVGID_00000102515469207193521050000006783031688011581623_);" d="M1784.678,1861.641
						c0,0,41.731,100.62,41.511,161.416c-0.22,60.795-42.732,95.689-74.976,80.674c-32.244-15.015-80.824-78.242-80.824-78.242
						s-6.527,17.023-31.257,0c-24.73-17.023-43.097-112.612,4.995-85.488c0,0-7.612-26.794,4.245-65.656
						C1660.228,1835.484,1770.614,1793.536,1784.678,1861.641z"/>
					<g style="opacity:0.3;">
						
							<linearGradient id="SVGID_00000062889639073423043360000015491269103190067585_" gradientUnits="userSpaceOnUse" x1="-2369.6328" y1="2762.4116" x2="-1683.8789" y2="2762.4116" gradientTransform="matrix(-1 0 0 1 -421.0958 0)">
							<stop  offset="0" style="stop-color:#FF9085"/>
							<stop  offset="1" style="stop-color:#FB6FBB"/>
						</linearGradient>
						<path style="fill:url(#SVGID_00000062889639073423043360000015491269103190067585_);" d="M1438.091,2826.518
							c36.17-56.76-18.978-105.966,4.45-195.803c19.992-76.659,85.097-136.5,109.026-126.827
							c33.063,13.366-31.903,151.59,33.375,215.828c43.335,42.644,99.82,9.142,157.977,46.726
							c38.352,24.785,76.89,80.177,79.899,213.708c-88.927,7.643-177.854,15.285-266.78,22.927
							c-1.641-49.181-5.951-103.879-14.591-162.931c-8.941-61.114-20.996-116.467-34.045-165.364
							c-13.947,55.563-26.229,120.46-32.83,193.329c-4.568,50.433-5.745,97.3-4.863,139.83
							c-12.605,4.968-83.579,31.566-151.988-4.864c-3.82-2.035-7.43-4.178-10.879-6.383c1.751-29.455,9.305-63.108,31.123-92.301
							C1373.423,2856.951,1411.924,2867.581,1438.091,2826.518z"/>
					</g>
					<path style="fill:#FFFFFF;" d="M1715.832,2076.059c-58.409,0-80.408-83.697-80.64-84.61c-0.553-2.176,0.761-4.387,2.937-4.94
						c2.17-0.551,4.39,0.762,4.943,2.935c0.233,0.911,23.914,90.879,85.685,76.991c2.194-0.482,4.367,0.886,4.857,3.078
						c0.492,2.189-0.885,4.365-3.076,4.857C1725.399,2075.521,1720.497,2076.059,1715.832,2076.059z"/>
					
						<ellipse transform="matrix(0.9678 -0.2517 0.2517 0.9678 -464.182 506.2131)" style="fill:#FFFFFF;" cx="1747.078" cy="2067.944" rx="21.005" ry="11.519"/>
					
						<ellipse transform="matrix(0.9678 -0.2517 0.2517 0.9678 -445.1915 474.3306)" style="fill:#FFFFFF;" cx="1631.903" cy="1977.738" rx="19.625" ry="31.417"/>
					<path style="fill:#FFFFFF;" d="M1621.992,1961.092c0,0-0.491-1.178-1.41-3.386c-0.866-2.195-2.081-5.42-3.483-9.562
						c-2.744-8.291-6.273-20.29-8.646-35.089c-2.43-14.748-3.591-32.422-1.06-51.118c1.247-9.333,3.555-18.888,7.162-28.143
						c3.572-9.261,8.42-18.206,14.364-26.355c5.873-8.226,13.179-15.29,20.782-21.566c1.95-1.515,3.893-3.024,5.826-4.527
						c2.038-1.346,4.067-2.684,6.083-4.017l3.019-1.981l3.127-1.746c2.081-1.151,4.147-2.292,6.197-3.426
						c2.213-1.183,4.181-1.998,6.272-2.992c2.202-0.832,4.369-1.786,6.541-2.477c4.328-1.422,8.64-2.612,12.919-3.333
						c8.531-1.562,16.824-1.802,24.323-1.112c1.809,0.101,3.666,0.376,5.492,0.681c1.82,0.272,3.596,0.542,5.263,1.006
						c1.678,0.436,3.34,0.746,4.902,1.26c1.557,0.538,3.069,1.059,4.533,1.566c1.489,0.435,2.795,1.225,4.128,1.794
						c1.299,0.645,2.613,1.146,3.761,1.849c2.263,1.459,4.461,2.622,6.22,4c1.736,1.408,3.286,2.664,4.634,3.758
						c1.262,1.185,2.229,2.307,3.066,3.16c1.641,1.739,2.516,2.666,2.516,2.666c0.819,0.869,0.78,2.238-0.089,3.057
						c-0.861,0.813-2.215,0.781-3.036-0.067l-0.203-0.208c0,0-0.819-0.846-2.358-2.435c-0.782-0.779-1.681-1.812-2.855-2.894
						c-1.254-0.994-2.695-2.137-4.309-3.416c-1.629-1.257-3.681-2.296-5.771-3.631c-1.063-0.641-2.294-1.085-3.5-1.671
						c-1.242-0.512-2.442-1.24-3.84-1.625c-1.368-0.456-2.779-0.928-4.232-1.413c-1.458-0.466-3.026-0.735-4.597-1.13
						c-1.576-0.424-3.206-0.649-4.874-0.881c-1.651-0.264-3.362-0.512-5.233-0.598c-7.16-0.583-14.951-0.271-23.004,1.286
						c-4.033,0.718-8.089,1.888-12.156,3.27c-2.042,0.671-3.968,1.557-5.991,2.328c-1.98,0.964-4.219,1.942-6.046,2.959
						c-1.966,1.115-3.948,2.238-5.944,3.37l-2.999,1.712l-2.878,1.938c-1.923,1.296-3.858,2.601-5.802,3.913
						c-1.833,1.456-3.675,2.92-5.524,4.388c-7.196,6.075-14.071,12.849-19.541,20.694c-5.543,7.771-10.031,16.261-13.323,25.061
						c-3.322,8.79-5.425,17.881-6.519,26.796c-2.229,17.853-0.958,34.854,1.544,49.083c2.438,14.274,5.983,25.876,8.711,33.847
						c1.394,3.981,2.592,7.062,3.436,9.137c0.87,2.03,1.333,3.114,1.333,3.114l0.064,0.15c0.824,1.927-0.068,4.159-1.996,4.984
						c-1.927,0.824-4.159-0.069-4.984-1.996L1621.992,1961.092z"/>
				</g>
			</g>
		</g>
		<g>
			<g>
				<g>
					<path style="fill:#97A6B7;" d="M3045.731,1348.493l-65.93-19.408c8.356-44.873,10.269-89.757,6.327-133.625l65.288-15.805
						c17.843-4.32,28.95-22.693,24.849-41.078l-10.94-49.04c-4.126-18.496-22.009-30.138-39.982-25.964l-64.274,14.928
						c-14.978-43.472-35.955-84.882-62.329-122.966l47.752-44.987c13.702-12.908,14.396-35.032,1.538-49.473l-34.378-38.611
						c-12.997-14.596-34.81-15.979-48.708-3.029l-47.66,44.41c-35.132-31.058-75.116-57.799-119.392-78.907l18.903-63.808
						c5.577-18.824-5.178-39.377-24.08-45.928l-50.59-17.533c-19.145-6.635-39.284,3.397-44.922,22.427l-19.111,64.509
						c-49.066-10.196-98.416-13.107-146.744-9.307l-16.956-68.461c-4.982-20.118-25.357-33.382-45.556-29.584l-54.023,10.159
						c-20.429,3.842-32.859,23.442-27.714,43.735l17.793,70.173c-46.952,15.945-91.39,38.519-131.822,67.066l-53.403-55.304
						c-15.14-15.68-40.063-17.259-55.648-3.461l-41.586,36.817c-15.69,13.891-15.924,37.878-0.542,53.51l55.502,56.403
						c-30.966,36.939-56.862,78.697-76.348,124.608l-79.671-23.454c-21.442-6.312-43.686,4.768-49.611,24.768l-15.758,53.19
						c-5.925,20,6.767,41.161,28.277,47.243l82.047,23.2c-6.845,48.447-6.301,96.659,0.92,143.409l-84.284,19.575
						c-21.492,4.992-34.387,25.325-28.751,45.37l14.94,53.129c5.599,19.911,27.458,31.831,48.773,26.671l85.516-20.703
						c18.942,43.126,43.877,83.475,74.038,119.845l-63.217,58.907c-15.412,14.361-15.638,37.482-0.524,51.58l39.968,37.282
						c14.944,13.94,39.35,13.597,54.529-0.703l62.962-59.317c36.898,26.739,77.771,48.88,121.964,65.436l-23.672,79.906
						c-5.638,19.031,5.854,38.189,25.604,42.778l52.191,12.126c19.501,4.531,39.781-7.067,45.357-25.891l23.415-79.038
						c46.026,5.49,91.571,4.726,135.636-1.609l19.421,76.593c4.64,18.3,23.772,28.732,42.689,23.345l50.039-14.252
						c18.715-5.33,30.206-24.339,25.708-42.499l-18.614-75.16c41.527-16.656,80.599-38.582,116.167-65.098l52.406,53.257
						c12.864,13.073,34.285,12.773,47.857-0.616l35.985-35.5c13.49-13.308,14.161-34.693,1.487-47.819l-50.455-52.25
						c27.824-33.647,51.457-71.238,69.904-112.223l67.919,19.205c17.508,4.951,35.972-5.609,41.293-23.571l14.151-47.768
						C3072.975,1372.344,3063.183,1353.63,3045.731,1348.493z M2395.753,1583.675c-197.131-50.529-315.474-250.2-257.958-444.346
						c57.515-194.145,266.14-299.22,459.722-236.712c187.003,60.384,290.204,255.683,236.179,438.044
						C2779.671,1523.023,2586.185,1632.487,2395.753,1583.675z"/>
					<polygon style="fill:#97A6B7;" points="2433.896,653.805 2387.442,638.283 2358.793,675.567 					"/>
					<polygon style="fill:#97A6B7;" points="2893.528,811.097 2947.487,827.669 2935.661,867.589 					"/>
					<polygon style="fill:#97A6B7;" points="3042.728,1064.765 3096.029,1082.926 3073.592,1109.141 					"/>
					<polygon style="fill:#97A6B7;" points="3050.226,1350.439 3103.434,1370.896 3077.8,1392.056 					"/>
					<polygon style="fill:#97A6B7;" points="2848.843,1697.438 2899.473,1720.653 2918.732,1679.414 					"/>
					<polygon style="fill:#97A6B7;" points="2588.851,1832.254 2633.766,1854.949 2647.931,1821.003 					"/>
					<polygon style="fill:#97A6B7;" points="2326.555,1846.091 2286.175,1825.913 2339,1782.295 					"/>
					<polygon style="fill:#97A6B7;" points="2109.248,1731.835 2062.654,1706.882 2114.7,1671.835 					"/>
					<polygon style="fill:#97A6B7;" points="2093.723,760.173 2145.032,777.134 2113.345,808.823 					"/>
					<polygon style="fill:#97A6B7;" points="1870.344,1135.865 1915.739,1156.942 1923.469,1116.981 					"/>
					<polygon style="fill:#97A6B7;" points="1888.079,1450.368 1932.235,1471.664 1945.121,1442.034 					"/>
				</g>
				<path style="fill:#D8DEE8;" d="M3097.703,1368.544l-66.476-19.569c8.424-45.239,10.351-90.489,6.375-134.715l65.828-15.932
					c17.99-4.354,29.188-22.878,25.053-41.412l-11.032-49.44c-4.161-18.647-22.192-30.385-40.314-26.177l-64.805,15.047
					c-15.103-43.827-36.256-85.576-62.849-123.972l48.146-45.352c13.815-13.013,14.514-35.317,1.549-49.877l-34.664-38.927
					c-13.105-14.716-35.098-16.111-49.111-3.056l-48.052,44.771c-35.424-31.313-75.74-58.274-120.384-79.555l19.057-64.328
					c5.622-18.978-5.222-39.699-24.282-46.304l-51.009-17.678c-19.303-6.69-39.609,3.423-45.293,22.609l-19.266,65.034
					c-49.473-10.281-99.23-13.218-147.959-9.389l-17.098-69.02c-5.025-20.282-25.568-33.655-45.934-29.827l-54.47,10.24
					c-20.598,3.873-33.13,23.632-27.941,44.091l17.943,70.746c-47.34,16.073-92.145,38.83-132.911,67.608l-53.847-55.757
					c-15.266-15.808-40.395-17.401-56.109-3.492l-41.929,37.116c-15.819,14.003-16.055,38.187-0.545,53.947l55.964,56.866
					c-31.221,37.239-57.33,79.337-76.975,125.622l-80.332-23.648c-21.62-6.365-44.047,4.805-50.021,24.969l-15.886,53.623
					c-5.974,20.163,6.825,41.497,28.513,47.63l82.727,23.392c-6.9,48.841-6.349,97.447,0.933,144.579l-84.981,19.731
					c-21.669,5.031-34.671,25.531-28.987,45.739l15.066,53.563c5.646,20.074,27.687,32.091,49.177,26.89l86.223-20.868
					c19.1,43.479,44.244,84.158,74.655,120.825l-63.739,59.385c-15.539,14.477-15.766,37.788-0.526,52.002l40.301,37.587
					c15.068,14.054,39.676,13.71,54.98-0.706l63.48-59.798c37.204,26.959,78.417,49.282,122.976,65.974l-23.865,80.557
					c-5.684,19.186,5.904,38.501,25.818,43.128l52.624,12.227c19.663,4.569,40.109-7.123,45.731-26.1l23.606-79.682
					c46.407,5.537,92.329,4.768,136.759-1.617l19.585,77.219c4.679,18.449,23.97,28.968,43.043,23.537l50.452-14.366
					c18.87-5.373,30.455-24.536,25.919-42.844l-18.771-75.774c41.87-16.79,81.265-38.894,117.126-65.624l52.841,53.693
					c12.971,13.18,34.569,12.878,48.253-0.62l36.281-35.788c13.601-13.416,14.277-34.975,1.498-48.209l-50.875-52.679
					c28.053-33.92,51.881-71.817,70.479-113.136l68.482,19.365c17.653,4.992,36.269-5.653,41.634-23.761l14.267-48.157
					C3125.173,1392.591,3115.3,1373.724,3097.703,1368.544z M2442.354,1605.619c-198.764-50.949-318.095-252.254-260.11-447.981
					c57.984-195.727,268.331-301.651,463.518-238.626c188.554,60.884,292.616,257.78,238.151,441.627
					C2829.447,1544.488,2634.364,1654.837,2442.354,1605.619z"/>
			</g>
			<g>
				<defs>
					<path id="SVGID_00000033330954445645717380000016473265343867924872_" d="M2678.771,865.256V685.346h-669.953v581.951h129.112
						c20.828,195.876,187.499,350.91,390.04,350.91c216.633,0,389.425-186.165,390.91-392.062
						C2920.049,1063.983,2820.711,924.992,2678.771,865.256z"/>
				</defs>
				<clipPath id="SVGID_00000031205570865405798630000009339616607846486953_">
					<use xlink:href="#SVGID_00000033330954445645717380000016473265343867924872_"  style="overflow:visible;"/>
				</clipPath>
				<g style="clip-path:url(#SVGID_00000031205570865405798630000009339616607846486953_);">
					
						<linearGradient id="SVGID_00000045612954895361264340000014120028815967476149_" gradientUnits="userSpaceOnUse" x1="2363.0369" y1="956.6738" x2="2374.498" y2="858.7324">
						<stop  offset="0" style="stop-color:#FFC444"/>
						<stop  offset="0.9964" style="stop-color:#F36F56"/>
					</linearGradient>
					<path style="fill:url(#SVGID_00000045612954895361264340000014120028815967476149_);" d="M2329.09,924.561l20.517-13.992
						c0,0,2.724-26.497,14.116-35.598c11.392-9.101,42.254-18.883,45.721-4.024c3.467,14.858-12.537,62.034-32.101,67.235
						c-19.564,5.2-39.623,17.583-39.623,17.583L2329.09,924.561z"/>
					
						<linearGradient id="SVGID_00000080195011570578528890000011988870467096711843_" gradientUnits="userSpaceOnUse" x1="2234.5398" y1="1257.1106" x2="2277.0117" y2="894.1701">
						<stop  offset="0" style="stop-color:#AA80F9"/>
						<stop  offset="0.9964" style="stop-color:#6165D7"/>
					</linearGradient>
					<path style="fill:url(#SVGID_00000080195011570578528890000011988870467096711843_);" d="M2417.956,976.318
						c0,0-60.282-14.286-107.284,31.747s-102.275,119.701-107.201,109.107c-4.926-10.594,88.683-129.462,147.622-164.132
						c-7.429-22.288-23.526-46.309-23.526-46.309s-272.675,77.017-265.483,203.81s79.349,145.239,98.898,145.239
						s68.271,24.148,204.969-40.239C2502.65,1151.154,2417.956,976.318,2417.956,976.318z"/>
					<g>
						
							<linearGradient id="SVGID_00000036931558223384099270000003855363822238678927_" gradientUnits="userSpaceOnUse" x1="1906.7734" y1="769.1322" x2="1956.0133" y2="858.8405" gradientTransform="matrix(0.8164 0.5775 -0.5775 0.8164 1291.5538 -922.309)">
							<stop  offset="0" style="stop-color:#311944"/>
							<stop  offset="1" style="stop-color:#893976"/>
						</linearGradient>
						<path style="fill:url(#SVGID_00000036931558223384099270000003855363822238678927_);" d="M2445.49,890.703
							c1.41-1.993,0.937-4.751-1.055-6.161l-45.582-32.246c-1.993-1.41-4.751-0.937-6.161,1.056l-53.59,75.752
							c-1.41,1.993-0.937,4.751,1.056,6.161l45.582,32.246c1.993,1.41,4.751,0.937,6.161-1.056L2445.49,890.703z"/>
						<g>
							
								<linearGradient id="SVGID_00000024694594806258234450000006497575240027496383_" gradientUnits="userSpaceOnUse" x1="1926.2284" y1="860.1267" x2="1990.9059" y2="860.1267" gradientTransform="matrix(0.8164 0.5775 -0.5775 0.8164 1291.5538 -922.309)">
								<stop  offset="0" style="stop-color:#311944"/>
								<stop  offset="1" style="stop-color:#893976"/>
							</linearGradient>
							<path style="fill:url(#SVGID_00000024694594806258234450000006497575240027496383_);" d="M2393.409,967.523
								c-1.41,1.993-4.168,2.465-6.161,1.056l-45.582-32.246c-1.993-1.41-2.466-4.168-1.056-6.161l53.59-75.752
								c1.41-1.993,4.168-2.466,6.161-1.056l45.582,32.246c1.993,1.41,2.466,4.168,1.056,6.161L2393.409,967.523z"/>
							<path style="fill:#FFFFFF;" d="M2394.219,956.779c-1.41,1.993-4.168,2.465-6.161,1.056l-36.531-25.843
								c-1.993-1.41-2.465-4.168-1.055-6.161l43.985-62.176c1.41-1.993,4.168-2.465,6.161-1.056l36.531,25.843
								c1.993,1.41,2.465,4.168,1.056,6.161L2394.219,956.779z"/>
							<path style="fill:#FFFFFF;" d="M2426.096,876.524c-0.478,0.676-1.413,0.836-2.088,0.358l-9.622-6.807
								c-0.676-0.478-0.836-1.413-0.358-2.088l0.404-0.571c0.478-0.675,1.413-0.836,2.088-0.358l9.622,6.807
								c0.676,0.478,0.836,1.413,0.358,2.088L2426.096,876.524z"/>
						</g>
					</g>
					
						<linearGradient id="SVGID_00000125585419785782359930000014354057062363385014_" gradientUnits="userSpaceOnUse" x1="6793.853" y1="1904.5421" x2="6837.5205" y2="1814.1599" gradientTransform="matrix(0.9925 0.1225 -0.1225 0.9925 -3963.4919 -162.6817)">
						<stop  offset="0" style="stop-color:#FFC444"/>
						<stop  offset="0.9964" style="stop-color:#F36F56"/>
					</linearGradient>
					<path style="fill:url(#SVGID_00000125585419785782359930000014354057062363385014_);" d="M2557.283,2501.558l-3.998,45.521
						c1.135,2.198,14.666,8.792,25.413,3.137l10.271-44.746L2557.283,2501.558z"/>
					
						<linearGradient id="SVGID_00000136373345844802304020000000407795379988279467_" gradientUnits="userSpaceOnUse" x1="6568.3887" y1="1107.9063" x2="6674.1382" y2="1107.9063" gradientTransform="matrix(0.9642 0.2651 -0.2651 0.9642 -3883.4033 -308.9189)">
						<stop  offset="0" style="stop-color:#444B8C"/>
						<stop  offset="0.9964" style="stop-color:#26264F"/>
					</linearGradient>
					<path style="fill:url(#SVGID_00000136373345844802304020000000407795379988279467_);" d="M2254.401,2501.791
						c6.523,7.205,8.009,20.47,2.337,27.005c-5.576,6.426-13.961,1.607-37.74,2.316c-25.472,0.762-32.123,6.778-49.432,2.002
						c-6.993-1.933-19.343-6.622-19.109-11.615c0.165-3.512,6.452-5.325,27.453-12.361c29.81-9.985,29.678-10.531,36.008-11.58
						C2229.819,2494.925,2245.785,2492.279,2254.401,2501.791z"/>
					
						<linearGradient id="SVGID_00000093147888176091496480000016729608750803820212_" gradientUnits="userSpaceOnUse" x1="6536.1899" y1="1479.8674" x2="6580.7847" y2="1387.5665" gradientTransform="matrix(0.9802 0.1979 -0.1979 0.9802 -3894.6135 -227.1835)">
						<stop  offset="0" style="stop-color:#FFC444"/>
						<stop  offset="0.9964" style="stop-color:#F36F56"/>
					</linearGradient>
					<path style="fill:url(#SVGID_00000093147888176091496480000016729608750803820212_);" d="M2238.081,2460.247l-12.776,42.496
						c0.966,2.28,13.954,9.884,25.099,5.067l18.974-41.247L2238.081,2460.247z"/>
					
						<linearGradient id="SVGID_00000165919859128016946710000000403198619960299655_" gradientUnits="userSpaceOnUse" x1="-3881.4187" y1="2328.478" x2="-4163.4731" y2="1692.6605" gradientTransform="matrix(-1 0 0 1 -1690.5531 0)">
						<stop  offset="0" style="stop-color:#AB316D"/>
						<stop  offset="1" style="stop-color:#792D3D"/>
					</linearGradient>
					<path style="fill:url(#SVGID_00000165919859128016946710000000403198619960299655_);" d="M2351.594,1529.505
						c-1.83,142.821-11.576,303.406-34.962,477.873c-23.111,172.433-55.5,328.235-90.831,465.24
						c16.3,4.386,32.6,8.771,48.899,13.156c41.354-38.56,93.521-99.26,118.693-185.039c15.623-53.24,10.417-80.598,20.326-146.081
						c15.779-104.264,47.74-158.89,80.773-242.969c29.685-75.553,64.773-186.434,83.587-334.648
						C2502.584,1561.195,2427.088,1545.349,2351.594,1529.505z"/>
					
						<linearGradient id="SVGID_00000146467206139012310360000004157679517700945059_" gradientUnits="userSpaceOnUse" x1="-3881.4187" y1="2328.4783" x2="-4163.4731" y2="1692.6609" gradientTransform="matrix(-1 0 0 1 -1690.5531 0)">
						<stop  offset="0" style="stop-color:#AB316D"/>
						<stop  offset="1" style="stop-color:#792D3D"/>
					</linearGradient>
					<path style="opacity:0.3;fill:url(#SVGID_00000146467206139012310360000004157679517700945059_);" d="M2339.451,2215.313
						c16.359-45.19,36.274-59.108,45.163-106.456c7.753-41.299-2.893-54.713-3.226-96.778
						c-0.664-83.825,40.97-111.59,54.841-180.652c7.519-37.438-41.654-131.97-86.763-213.641c1.054-30.112,1.76-59.573,2.128-88.281
						c75.494,15.844,150.99,31.689,226.486,47.534c-18.813,148.213-53.902,259.095-83.587,334.648
						c-33.034,84.077-64.995,138.704-80.773,242.968c-9.91,65.484-4.703,92.843-20.326,146.082
						c-25.172,85.779-77.339,146.479-118.693,185.039c-1.54-0.414-3.08-0.829-4.62-1.243
						c41.686-54.332,54.631-100.481,56.467-136.955C2328.444,2309.872,2319.012,2271.773,2339.451,2215.313z"/>
					
						<linearGradient id="SVGID_00000021814638401024553610000011608314733191853478_" gradientUnits="userSpaceOnUse" x1="-4361.0635" y1="1759.856" x2="-4643.1128" y2="1124.0497" gradientTransform="matrix(-0.9925 -0.1225 -0.1225 0.9925 -1773.5582 108.1241)">
						<stop  offset="0" style="stop-color:#AB316D"/>
						<stop  offset="1" style="stop-color:#792D3D"/>
					</linearGradient>
					<path style="fill:url(#SVGID_00000021814638401024553610000011608314733191853478_);" d="M2508.558,1546.288
						c9.977,181.645,18.182,366.67,24.4,554.972c4.667,141.302,8.094,280.812,10.371,418.486c16.649,2.055,33.3,4.112,49.951,6.167
						c16.088-29.954,37.458-75.75,52.096-134.447c17.78-71.289,13.662-113.624,21.459-187.509
						c8.749-82.868,21.455-100.922,43.966-205.459c45.688-212.154,68.533-318.233,17.567-384.219
						C2711.825,1592.857,2659.96,1539.121,2508.558,1546.288z"/>
					
						<linearGradient id="SVGID_00000021115566514348244960000003829737282128967855_" gradientUnits="userSpaceOnUse" x1="-4425.2837" y1="1614.3289" x2="-4098.3892" y2="1261.6276" gradientTransform="matrix(-1 0 0 1 -1690.5531 0)">
						<stop  offset="0" style="stop-color:#AA80F9"/>
						<stop  offset="0.9964" style="stop-color:#6165D7"/>
					</linearGradient>
					<path style="fill:url(#SVGID_00000021115566514348244960000003829737282128967855_);" d="M2739.143,1004.698
						c-43.068-12.112-106.188-26.275-183.49-30.645c-113.977-6.442-170.986-9.293-204.444,16.908
						c-103.768,81.261-5.427,371.71-42.405,524.325c-31.114,128.414-32.259,130.65-32.259,130.65
						c-7.354,14.356-19.273,34.304-14.517,58.067c3.741,18.689,17.882,40.165,37.098,46.776
						c39.931,13.739,62.82-50.107,129.037-69.358c69.216-20.122,146.657,19.853,244.58,70.402
						c62.318,32.17,83.597,52.688,105.434,42.506c42.048-19.606,30.5-127.089,25.808-170.974
						C2785.336,1448.967,2764.348,1244.79,2739.143,1004.698z"/>
					
						<linearGradient id="SVGID_00000150074796763369517750000008965330445934640548_" gradientUnits="userSpaceOnUse" x1="-4403.6133" y1="1634.4133" x2="-4076.7185" y2="1281.7117" gradientTransform="matrix(-1 0 0 1 -1690.5531 0)">
						<stop  offset="0" style="stop-color:#AA80F9"/>
						<stop  offset="0.9964" style="stop-color:#6165D7"/>
					</linearGradient>
					<path style="opacity:0.3;fill:url(#SVGID_00000150074796763369517750000008965330445934640548_);" d="M2331.386,1689.486
						c11.26-19.519,10.788-48.998,35.485-62.905c14.4-8.109,25.625-4.318,45.163-4.839c58.242-1.553,69.391-38.194,109.681-40.324
						c62.397-3.299,92.37,81.587,127.424,69.358c22.883-7.983,37.617-53.751,25.808-88.714
						c-16.462-48.737-72.879-42.061-146.78-108.069c-31.615-28.236-76.974-79.194-64.519-101.617
						c13.083-23.552,75.156,11.007,120.973-24.194c26.735-20.54,23.323-45.924,45.163-91.939
						c11.835-24.935,55.174-89.765,119.63-133.473c20.72,198.187,38.516,370.459,54.57,520.584
						c4.693,43.885,16.24,151.369-25.808,170.974c-21.836,10.182-43.116-10.336-105.434-42.506
						c-97.923-50.548-175.364-90.524-244.58-70.402c-66.217,19.25-89.107,83.096-129.037,69.358
						c-12.474-4.291-22.746-14.868-29.486-26.86C2305.253,1717.515,2322.902,1704.192,2331.386,1689.486z"/>
					<g>
						
							<linearGradient id="SVGID_00000134231430671412409000000012470170413709230775_" gradientUnits="userSpaceOnUse" x1="-3785.032" y1="3052.1614" x2="-3773.512" y2="2745.3037" gradientTransform="matrix(-0.917 0.3988 0.3988 0.917 -2090.1577 -184.8945)">
							<stop  offset="0" style="stop-color:#FFC444"/>
							<stop  offset="0.9964" style="stop-color:#F36F56"/>
						</linearGradient>
						<path style="fill:url(#SVGID_00000134231430671412409000000012470170413709230775_);" d="M2526.919,887.305
							c-0.073,8.667-7.921,52.076,21.142,73.121c29.327,21.236,66.22,20.081,77.212,22.807c25.488,6.319,28.767,6.147,29.33,8.676
							c2.745,12.339-66.755,54.392-138.559,44.256c-43.945-6.202-83.929-31.273-81.474-44.44c2.47-13.25,29.861-6.14,42.944-30.111
							c9.101-16.676,15.405-40.349,3.346-59.954C2492.541,879.775,2515.24,909.189,2526.919,887.305z"/>
						<g>
							
								<linearGradient id="SVGID_00000085931967569389396470000015662185691368052131_" gradientUnits="userSpaceOnUse" x1="6482.0215" y1="2615.4795" x2="6395.7598" y2="2396.3906" gradientTransform="matrix(0.9932 -0.1159 0.1159 0.9932 -4162.2422 -818.2575)">
								<stop  offset="0" style="stop-color:#311944"/>
								<stop  offset="1" style="stop-color:#6B3976"/>
							</linearGradient>
							<path style="fill:url(#SVGID_00000085931967569389396470000015662185691368052131_);" d="M2433.92,885.501
								c-12.391-12.904-16.035-37.6-5.612-54.742c8.969-14.752,25.408-18.68,35.248-21.037c28.517-6.822,66.458,0.856,82.356,25.943
								c9.42,14.868-2.901,49.6-4.738,55.799c-2.083,7.009-7.037,9.925-11.269,15.545c-5.864,7.793-15.023,20.166-29.92,40.806
								c-1.991-5.321-4.833-11.864-8.935-18.832c-1.579-2.683-7.883-13.141-16.51-21.404
								C2457.256,891.014,2445.667,897.729,2433.92,885.501z"/>
							
								<linearGradient id="SVGID_00000092452802358146554160000007201081660932061114_" gradientUnits="userSpaceOnUse" x1="-5036.2515" y1="2101.3616" x2="-5040.2178" y2="2420.9446" gradientTransform="matrix(-0.9985 0.0549 0.0549 0.9985 -2658.6772 -941.7688)">
								<stop  offset="0" style="stop-color:#FFC444"/>
								<stop  offset="0.9964" style="stop-color:#F36F56"/>
							</linearGradient>
							<path style="fill:url(#SVGID_00000092452802358146554160000007201081660932061114_);" d="M2522.545,929.248
								c0,0-15.255,33.478-53.402,35.575c-34.155,1.876-48.272-73.526-28.569-92.261c6.574-6.249,20.768-10.226,32.924-8.347
								c7.18,1.111,9.881,3.713,21.647,5.297c10.856,1.464,13.687-0.061,17.187,2.229c4.376,2.867,8.276,10.716,4.315,33.732
								c5.678-7.325,13.136-10.772,18.949-8.838c0.926,0.311,3.443,1.612,5.042,3.853
								C2546.421,908.598,2539.828,920.64,2522.545,929.248z"/>
							
								<linearGradient id="SVGID_00000152221778705300748610000004770922813318588820_" gradientUnits="userSpaceOnUse" x1="6455.6689" y1="2625.9697" x2="6369.3203" y2="2406.6594" gradientTransform="matrix(0.9932 -0.1159 0.1159 0.9932 -4162.2422 -818.2575)">
								<stop  offset="0" style="stop-color:#311944"/>
								<stop  offset="1" style="stop-color:#6B3976"/>
							</linearGradient>
							<path style="fill:url(#SVGID_00000152221778705300748610000004770922813318588820_);" d="M2513.317,867.012
								c-1.488,1.416,4.243,6.912,5.654,15.497c2.743,16.664-11.792,38.816-28.885,42.604c-10.105,2.239-13.659-3.586-30.781-3.337
								c-10.6,0.156-19.153,2.536-24.49,4.394c-3.1,19.013,4.105,36.729,17.41,43.749c14.323,7.558,30.544-0.027,37.325-3.199
								c4.537-2.122,19.078-8.889,25.317-23.723c6.501-15.458-2.639-23.203,5.639-34.125c4.175-5.51,10.183-8.402,15.132-18.689
								c1.343-2.796,2.172-5.225,2.663-6.85C2528.441,875.119,2515.471,864.961,2513.317,867.012z"/>
						</g>
					</g>
					
						<linearGradient id="SVGID_00000129172148400982594480000016096841050044153772_" gradientUnits="userSpaceOnUse" x1="-4375.0962" y1="1411.2772" x2="-4327.7822" y2="1006.9603" gradientTransform="matrix(-1 0 0 1 -1690.5531 0)">
						<stop  offset="0" style="stop-color:#AA80F9"/>
						<stop  offset="0.9964" style="stop-color:#6165D7"/>
					</linearGradient>
					<path style="fill:url(#SVGID_00000129172148400982594480000016096841050044153772_);" d="M2650.753,1053.978
						c17.403-26.396,52.031-52.3,83.874-50.002c93,6.712,207.639,257.238,129.037,356.466
						c-60.002,75.746-245.36,79.423-414.532-51.615c0-14.517,0-29.034,0-43.55c83.246,14.559,152.258,24.228,203.233,30.646
						c31.792,4.004,63.463,7.613,69.357-4.839c8.92-18.842-54.758-45.792-79.035-116.133
						C2639.342,1165.255,2618.054,1103.575,2650.753,1053.978z"/>
					
						<linearGradient id="SVGID_00000083776107584903460880000004670277447158369187_" gradientUnits="userSpaceOnUse" x1="2318.6626" y1="1300.0853" x2="2460.0554" y2="1300.0853">
						<stop  offset="0" style="stop-color:#FFC444"/>
						<stop  offset="0.9964" style="stop-color:#F36F56"/>
					</linearGradient>
					<path style="fill:url(#SVGID_00000083776107584903460880000004670277447158369187_);" d="M2388.92,1274.542
						c-0.755,0.125-42.718-26.931-36.775-10.958c5.944,15.973,18.103,21.545,18.103,21.545s-22.127,7.429-36.985,25.755
						c-14.859,18.325-19.069,29.222-9.41,30.708c9.658,1.486,89.441-35.699,109.974-35.061c20.533,0.638,24.991-0.352,24.991-0.352
						l1.238-29.222C2460.055,1276.956,2407.927,1271.384,2388.92,1274.542z"/>
					
						<linearGradient id="SVGID_00000120560875418456182300000012465302395184740795_" gradientUnits="userSpaceOnUse" x1="2601.4407" y1="1020.7446" x2="2606.26" y2="979.5623" gradientTransform="matrix(0.9306 -0.366 0.366 0.9306 -415.9347 909.7155)">
						<stop  offset="0" style="stop-color:#FFC444"/>
						<stop  offset="0.9964" style="stop-color:#F36F56"/>
					</linearGradient>
					<path style="fill:url(#SVGID_00000120560875418456182300000012465302395184740795_);" d="M2353.671,906.487
						c0,0,7.256-0.2,10.888,3.96s21.377-8.063,28.182-21.716s-1.58-27.978-7.635-24.996s-36.883,14.309-32.452,41.306
						L2353.671,906.487z"/>
				</g>
			</g>
		</g>
		<g>
			<g>
				
					<linearGradient id="SVGID_00000116914322014715704850000016542669135451107252_" gradientUnits="userSpaceOnUse" x1="1026.6847" y1="1083.4868" x2="2106.1682" y2="1083.4868">
					<stop  offset="0" style="stop-color:#311944"/>
					<stop  offset="1" style="stop-color:#893976"/>
				</linearGradient>
				<path style="fill:url(#SVGID_00000116914322014715704850000016542669135451107252_);" d="M2099.818,1435.249
					c-0.7,0.194-1.438,0.272-2.255,0.272l-272.233-4.159l-112.213-1.749l-92.234-1.4l-507.438-11.272
					c-48.468-0.738-87.414-40.189-86.753-88.036l7.347-516.324c0.66-45.321,37.196-80.458,82.517-81.118
					c1.981-0.078,3.965,0.363,5.986,0.479l6.18,0.713c0.04,0,0.078,0,0.078,0l698.512,47.756
					c43.222,2.216,78.01,39.911,77.892,84.454l-0.894,409.532l198.072,144.734
					C2108.719,1423.755,2106.581,1433.538,2099.818,1435.249z"/>
				<g>
					
						<linearGradient id="SVGID_00000109017775293691380660000015199756116389146026_" gradientUnits="userSpaceOnUse" x1="1046.1296" y1="1083.4868" x2="2125.5952" y2="1083.4868">
						<stop  offset="0" style="stop-color:#FF9085"/>
						<stop  offset="1" style="stop-color:#FB6FBB"/>
					</linearGradient>
					<path style="fill:url(#SVGID_00000109017775293691380660000015199756116389146026_);" d="M2121.812,1419.062l-198.061-144.758
						l0.903-409.643c0.098-44.534-34.699-82.419-77.912-84.668l-704.759-48.434c-48.1-2.503-87.82,33.74-88.493,81.008
						l-7.351,516.336c-0.681,47.856,38.257,87.294,86.744,88.039l599.652,12.687l112.214,1.725l272.247,4.184
						C2125.456,1435.667,2128.812,1424.178,2121.812,1419.062z"/>
				</g>
				<path style="fill:#FFFFFF;" d="M1491.953,1280.369c-18.841,0.963-36.37-5.886-46.123-18.123l-163.795-205.519
					c-15.351-19.259-7.08-45.639,18.465-58.916c25.523-13.269,58.647-8.423,73.978,10.829l113.594,142.663l149.885-238.526
					c13.451-21.406,45.769-31.226,72.164-21.942c26.391,9.281,36.892,34.144,23.459,55.537l-193.693,308.494
					c-8.87,14.125-26.502,23.846-46.042,25.38C1493.214,1280.295,1492.583,1280.337,1491.953,1280.369z"/>
			</g>
			
				<linearGradient id="SVGID_00000026129433623277106960000011376822148243496383_" gradientUnits="userSpaceOnUse" x1="1046.1296" y1="1079.8376" x2="1866.1011" y2="1079.8376">
				<stop  offset="0" style="stop-color:#FF9085"/>
				<stop  offset="1" style="stop-color:#FB6FBB"/>
			</linearGradient>
			<path style="opacity:0.2;fill:url(#SVGID_00000026129433623277106960000011376822148243496383_);" d="M1866.101,1428.213
				l-733.21-11.272c-48.468-0.738-87.414-40.189-86.753-88.036l7.347-516.324c0.661-45.321,37.196-80.458,82.517-81.118
				c0.894,0.583,1.748,1.205,2.604,1.866c41.706,30.551,77.541,78.942,87.376,155.628
				c27.208,211.832,134.095,204.058,242.926,217.662c54.687,6.841,104.477,19.084,154.034,50.529
				c49.052,31.133,97.909,81.078,151.081,163.246c33.972,52.472,62.227,85.937,91.651,107.509
				C1865.83,1428.019,1865.985,1428.135,1866.101,1428.213z"/>
		</g>
	</g>
</g>
</svg>
